G04 #@! TF.GenerationSoftware,KiCad,Pcbnew,7.0.1*
G04 #@! TF.CreationDate,2023-08-15T21:07:27+02:00*
G04 #@! TF.ProjectId,ESP_PROG,4553505f-5052-44f4-972e-6b696361645f,rev?*
G04 #@! TF.SameCoordinates,Original*
G04 #@! TF.FileFunction,Legend,Top*
G04 #@! TF.FilePolarity,Positive*
%FSLAX46Y46*%
G04 Gerber Fmt 4.6, Leading zero omitted, Abs format (unit mm)*
G04 Created by KiCad (PCBNEW 7.0.1) date 2023-08-15 21:07:27*
%MOMM*%
%LPD*%
G01*
G04 APERTURE LIST*
G04 Aperture macros list*
%AMRoundRect*
0 Rectangle with rounded corners*
0 $1 Rounding radius*
0 $2 $3 $4 $5 $6 $7 $8 $9 X,Y pos of 4 corners*
0 Add a 4 corners polygon primitive as box body*
4,1,4,$2,$3,$4,$5,$6,$7,$8,$9,$2,$3,0*
0 Add four circle primitives for the rounded corners*
1,1,$1+$1,$2,$3*
1,1,$1+$1,$4,$5*
1,1,$1+$1,$6,$7*
1,1,$1+$1,$8,$9*
0 Add four rect primitives between the rounded corners*
20,1,$1+$1,$2,$3,$4,$5,0*
20,1,$1+$1,$4,$5,$6,$7,0*
20,1,$1+$1,$6,$7,$8,$9,0*
20,1,$1+$1,$8,$9,$2,$3,0*%
G04 Aperture macros list end*
%ADD10C,0.300000*%
%ADD11C,0.200000*%
%ADD12C,0.120000*%
%ADD13RoundRect,0.200000X-0.275000X0.200000X-0.275000X-0.200000X0.275000X-0.200000X0.275000X0.200000X0*%
%ADD14C,0.650000*%
%ADD15R,0.600000X1.450000*%
%ADD16R,0.300000X1.450000*%
%ADD17O,1.000000X2.100000*%
%ADD18O,1.000000X1.600000*%
%ADD19R,3.150000X1.000000*%
%ADD20RoundRect,0.225000X-0.225000X-0.250000X0.225000X-0.250000X0.225000X0.250000X-0.225000X0.250000X0*%
%ADD21RoundRect,0.200000X0.200000X0.275000X-0.200000X0.275000X-0.200000X-0.275000X0.200000X-0.275000X0*%
%ADD22RoundRect,0.250000X0.325000X0.650000X-0.325000X0.650000X-0.325000X-0.650000X0.325000X-0.650000X0*%
%ADD23RoundRect,0.150000X0.825000X0.150000X-0.825000X0.150000X-0.825000X-0.150000X0.825000X-0.150000X0*%
%ADD24RoundRect,0.200000X-0.200000X-0.275000X0.200000X-0.275000X0.200000X0.275000X-0.200000X0.275000X0*%
%ADD25R,0.700000X1.000000*%
%ADD26R,0.700000X0.600000*%
%ADD27R,1.500000X2.000000*%
%ADD28R,3.800000X2.000000*%
%ADD29RoundRect,0.218750X0.218750X0.256250X-0.218750X0.256250X-0.218750X-0.256250X0.218750X-0.256250X0*%
%ADD30RoundRect,0.250000X0.650000X-0.325000X0.650000X0.325000X-0.650000X0.325000X-0.650000X-0.325000X0*%
%ADD31RoundRect,0.225000X0.225000X0.250000X-0.225000X0.250000X-0.225000X-0.250000X0.225000X-0.250000X0*%
%ADD32R,0.450000X0.600000*%
%ADD33R,1.100000X1.100000*%
%ADD34R,0.600000X0.400000*%
%ADD35R,0.400000X0.650000*%
%ADD36RoundRect,0.225000X0.250000X-0.225000X0.250000X0.225000X-0.250000X0.225000X-0.250000X-0.225000X0*%
G04 APERTURE END LIST*
D10*
X46654540Y-72009000D02*
X48115040Y-72009000D01*
X46654540Y-74676000D02*
X46654540Y-72009000D01*
X47353040Y-74168000D02*
X47353040Y-72517000D01*
X60071000Y-61849000D02*
X60071000Y-56578500D01*
X48115040Y-74676000D02*
X46654540Y-74676000D01*
D11*
X44694142Y-73834571D02*
X45551285Y-73834571D01*
X45551285Y-73834571D02*
X45722714Y-73891714D01*
X45722714Y-73891714D02*
X45837000Y-74006000D01*
X45837000Y-74006000D02*
X45894142Y-74177428D01*
X45894142Y-74177428D02*
X45894142Y-74291714D01*
X45894142Y-73263142D02*
X44694142Y-73263142D01*
X44694142Y-73263142D02*
X44694142Y-72805999D01*
X44694142Y-72805999D02*
X44751285Y-72691714D01*
X44751285Y-72691714D02*
X44808428Y-72634571D01*
X44808428Y-72634571D02*
X44922714Y-72577428D01*
X44922714Y-72577428D02*
X45094142Y-72577428D01*
X45094142Y-72577428D02*
X45208428Y-72634571D01*
X45208428Y-72634571D02*
X45265571Y-72691714D01*
X45265571Y-72691714D02*
X45322714Y-72805999D01*
X45322714Y-72805999D02*
X45322714Y-73263142D01*
G36*
X46068401Y-67778435D02*
G01*
X45075737Y-67778435D01*
X44720772Y-67778435D01*
X44548793Y-67778435D01*
X44548793Y-67536289D01*
X44720772Y-67536289D01*
X44784748Y-67558990D01*
X44874521Y-67581691D01*
X44975645Y-67599233D01*
X45075737Y-67606456D01*
X45194918Y-67598975D01*
X45296558Y-67576532D01*
X45381172Y-67540416D01*
X45449276Y-67491918D01*
X45538017Y-67362934D01*
X45566909Y-67199897D01*
X45553237Y-67096194D01*
X45512220Y-67007969D01*
X45446438Y-66937285D01*
X45358471Y-66886207D01*
X45474041Y-66778892D01*
X45517379Y-66632366D01*
X45513431Y-66609665D01*
X45696926Y-66609665D01*
X45740845Y-66753289D01*
X45785925Y-66891109D01*
X45832166Y-67023124D01*
X45879567Y-67149336D01*
X45943200Y-67306754D01*
X46006144Y-67450185D01*
X46068401Y-67579627D01*
X46280967Y-67579627D01*
X46302156Y-67536289D01*
X46784522Y-67536289D01*
X46848498Y-67558990D01*
X46938271Y-67581691D01*
X47039395Y-67599233D01*
X47139487Y-67606456D01*
X47258668Y-67598975D01*
X47360308Y-67576532D01*
X47444922Y-67540416D01*
X47513026Y-67491918D01*
X47601767Y-67362934D01*
X47630659Y-67199897D01*
X47616987Y-67096194D01*
X47575970Y-67007969D01*
X47510188Y-66937285D01*
X47422221Y-66886207D01*
X47537791Y-66778892D01*
X47581129Y-66632366D01*
X47556364Y-66489967D01*
X47480006Y-66375429D01*
X47348957Y-66300102D01*
X47262538Y-66279981D01*
X47162188Y-66273274D01*
X47052551Y-66282819D01*
X46954781Y-66311453D01*
X46807223Y-66386780D01*
X46898028Y-66572517D01*
X47020821Y-66513701D01*
X47164252Y-66489967D01*
X47280854Y-66530211D01*
X47323161Y-66640621D01*
X47303555Y-66719044D01*
X47252993Y-66768574D01*
X47182826Y-66795402D01*
X47104403Y-66803657D01*
X47009471Y-66803657D01*
X47009471Y-67014160D01*
X47087893Y-67014160D01*
X47200883Y-67024221D01*
X47292204Y-67054403D01*
X47352569Y-67109866D01*
X47372691Y-67195770D01*
X47320065Y-67334041D01*
X47248092Y-67375832D01*
X47137423Y-67389763D01*
X47039653Y-67384087D01*
X46956845Y-67367061D01*
X46834052Y-67323722D01*
X46784522Y-67536289D01*
X46302156Y-67536289D01*
X46344255Y-67450185D01*
X46410295Y-67306754D01*
X46479087Y-67149336D01*
X46530552Y-67023124D01*
X46579695Y-66891109D01*
X46626516Y-66753289D01*
X46671016Y-66609665D01*
X46413047Y-66609665D01*
X46391635Y-66690667D01*
X46364549Y-66776829D01*
X46334108Y-66865828D01*
X46302636Y-66955343D01*
X46270390Y-67043826D01*
X46237628Y-67129730D01*
X46177779Y-67284511D01*
X46121026Y-67129730D01*
X46091360Y-67043826D01*
X46062209Y-66955343D01*
X46034091Y-66865828D01*
X46007520Y-66776829D01*
X45983529Y-66690667D01*
X45963149Y-66609665D01*
X45696926Y-66609665D01*
X45513431Y-66609665D01*
X45492614Y-66489967D01*
X45416256Y-66375429D01*
X45285207Y-66300102D01*
X45198788Y-66279981D01*
X45098438Y-66273274D01*
X44988801Y-66282819D01*
X44891031Y-66311453D01*
X44743473Y-66386780D01*
X44834278Y-66572517D01*
X44957071Y-66513701D01*
X45100502Y-66489967D01*
X45217104Y-66530211D01*
X45259411Y-66640621D01*
X45239805Y-66719044D01*
X45189243Y-66768574D01*
X45119076Y-66795402D01*
X45040653Y-66803657D01*
X44945721Y-66803657D01*
X44945721Y-67014160D01*
X45024143Y-67014160D01*
X45137133Y-67024221D01*
X45228454Y-67054403D01*
X45288819Y-67109866D01*
X45308941Y-67195770D01*
X45256315Y-67334041D01*
X45184342Y-67375832D01*
X45073673Y-67389763D01*
X44975903Y-67384087D01*
X44893095Y-67367061D01*
X44770302Y-67323722D01*
X44720772Y-67536289D01*
X44548793Y-67536289D01*
X44548793Y-66101295D01*
X44720772Y-66101295D01*
X47630659Y-66101295D01*
X47802638Y-66101295D01*
X48361685Y-66939865D01*
X47802638Y-67778435D01*
X47630659Y-67778435D01*
X47139487Y-67778435D01*
X46068401Y-67778435D01*
G37*
G36*
X46258800Y-69042062D02*
G01*
X46329741Y-69076888D01*
X46375402Y-69139574D01*
X46390622Y-69234764D01*
X46375144Y-69335114D01*
X46328709Y-69400896D01*
X46251835Y-69437270D01*
X46145035Y-69449394D01*
X46041848Y-69449394D01*
X46041848Y-69036644D01*
X46104792Y-69031485D01*
X46167737Y-69030453D01*
X46258800Y-69042062D01*
G37*
G36*
X47286289Y-69066569D02*
G01*
X47370903Y-69162533D01*
X47414242Y-69300804D01*
X47426624Y-69461777D01*
X47422755Y-69552840D01*
X47411146Y-69636164D01*
X47359552Y-69773403D01*
X47264620Y-69864208D01*
X47119125Y-69897228D01*
X47096424Y-69897228D01*
X47073723Y-69895164D01*
X47073723Y-69036644D01*
X47110870Y-69031485D01*
X47148018Y-69030453D01*
X47286289Y-69066569D01*
G37*
G36*
X46041848Y-70300347D02*
G01*
X45156499Y-70300347D01*
X44725175Y-70300347D01*
X44553196Y-70300347D01*
X44553196Y-69639259D01*
X44725175Y-69639259D01*
X44730335Y-69745543D01*
X44745813Y-69841507D01*
X44773674Y-69925605D01*
X44815980Y-69996288D01*
X44949092Y-70094316D01*
X45042735Y-70119855D01*
X45156499Y-70128368D01*
X45272069Y-70119855D01*
X45340153Y-70101539D01*
X45788007Y-70101539D01*
X46041848Y-70101539D01*
X46041848Y-70087093D01*
X46819882Y-70087093D01*
X46959185Y-70110826D01*
X47092297Y-70118049D01*
X47216896Y-70109020D01*
X47330660Y-70081934D01*
X47431526Y-70035241D01*
X47517429Y-69967396D01*
X47587339Y-69877365D01*
X47640222Y-69764116D01*
X47673500Y-69626103D01*
X47684593Y-69461777D01*
X47674532Y-69301062D01*
X47644350Y-69165629D01*
X47596110Y-69053670D01*
X47531875Y-68963381D01*
X47451647Y-68894504D01*
X47355425Y-68846779D01*
X47245788Y-68818919D01*
X47125317Y-68809632D01*
X46982918Y-68815823D01*
X46819882Y-68840588D01*
X46819882Y-70087093D01*
X46041848Y-70087093D01*
X46041848Y-69670216D01*
X46132653Y-69670216D01*
X46285256Y-69658865D01*
X46412864Y-69624813D01*
X46515479Y-69568060D01*
X46590576Y-69485854D01*
X46635635Y-69375443D01*
X46650654Y-69236828D01*
X46635749Y-69099589D01*
X46591035Y-68990554D01*
X46516510Y-68909724D01*
X46414928Y-68854117D01*
X46289039Y-68820753D01*
X46138844Y-68809632D01*
X46058358Y-68811696D01*
X45965489Y-68816855D01*
X45871589Y-68826142D01*
X45788007Y-68840588D01*
X45788007Y-70101539D01*
X45340153Y-70101539D01*
X45367002Y-70094316D01*
X45443360Y-70052783D01*
X45503209Y-69996288D01*
X45547064Y-69925605D01*
X45575440Y-69841507D01*
X45590919Y-69745543D01*
X45596078Y-69639259D01*
X45596078Y-68824078D01*
X45342237Y-68824078D01*
X45342237Y-69620686D01*
X45333982Y-69755861D01*
X45305089Y-69844603D01*
X45249368Y-69893101D01*
X45160627Y-69907547D01*
X45071885Y-69893101D01*
X45017196Y-69845634D01*
X44989335Y-69757925D01*
X44981080Y-69622749D01*
X44981080Y-68824078D01*
X44725175Y-68824078D01*
X44725175Y-69639259D01*
X44553196Y-69639259D01*
X44553196Y-68637653D01*
X44725175Y-68637653D01*
X47684593Y-68637653D01*
X47856572Y-68637653D01*
X48410804Y-69469000D01*
X47856572Y-70300347D01*
X47684593Y-70300347D01*
X47092297Y-70300347D01*
X46041848Y-70300347D01*
G37*
G36*
X45103398Y-81752587D02*
G01*
X45175114Y-81788186D01*
X45221548Y-81849067D01*
X45237026Y-81936776D01*
X45179241Y-82080207D01*
X45103398Y-82118129D01*
X44991440Y-82130769D01*
X44935719Y-82130769D01*
X44935719Y-81746911D01*
X44976994Y-81741752D01*
X45012077Y-81740720D01*
X45103398Y-81752587D01*
G37*
G36*
X46246200Y-83010614D02*
G01*
X45579609Y-83010614D01*
X44681877Y-83010614D01*
X44509898Y-83010614D01*
X44509898Y-82811806D01*
X44681877Y-82811806D01*
X44935719Y-82811806D01*
X44935719Y-82341271D01*
X45067799Y-82341271D01*
X45137708Y-82458131D01*
X45202974Y-82573443D01*
X45262049Y-82690303D01*
X45313385Y-82811806D01*
X45579609Y-82811806D01*
X45520792Y-82676631D01*
X45449592Y-82534232D01*
X45373234Y-82398025D01*
X45298939Y-82279359D01*
X45389228Y-82221058D01*
X45449592Y-82141088D01*
X45483644Y-82045123D01*
X45494995Y-81938840D01*
X45486482Y-81838490D01*
X45460943Y-81752071D01*
X45455540Y-81744848D01*
X45653904Y-81744848D01*
X45990295Y-81744848D01*
X45990295Y-82811806D01*
X46246200Y-82811806D01*
X46246200Y-82741639D01*
X46716735Y-82741639D01*
X46859134Y-82804583D01*
X46970060Y-82830122D01*
X47112975Y-82838635D01*
X47257781Y-82827743D01*
X47375759Y-82795067D01*
X47466908Y-82740607D01*
X47554359Y-82622199D01*
X47583510Y-82463033D01*
X47574739Y-82366810D01*
X47548426Y-82288646D01*
X47458653Y-82173076D01*
X47338955Y-82098781D01*
X47214099Y-82048219D01*
X47134644Y-82017263D01*
X47062413Y-81979083D01*
X47009787Y-81929553D01*
X46989150Y-81864545D01*
X47011622Y-81783142D01*
X47079038Y-81734300D01*
X47191397Y-81718019D01*
X47336892Y-81738656D01*
X47451430Y-81788186D01*
X47525725Y-81592130D01*
X47378167Y-81532281D01*
X47282976Y-81512160D01*
X47172824Y-81505453D01*
X47046362Y-81516689D01*
X46939390Y-81550397D01*
X46851910Y-81606576D01*
X46764459Y-81727306D01*
X46735309Y-81887246D01*
X46768329Y-82038932D01*
X46851910Y-82141088D01*
X46964385Y-82209191D01*
X47084082Y-82256658D01*
X47170760Y-82292773D01*
X47249182Y-82336112D01*
X47306967Y-82390801D01*
X47329669Y-82460969D01*
X47320382Y-82521850D01*
X47286330Y-82575507D01*
X47219258Y-82612655D01*
X47112975Y-82626069D01*
X47010045Y-82618846D01*
X46924142Y-82597176D01*
X46791030Y-82535264D01*
X46716735Y-82741639D01*
X46246200Y-82741639D01*
X46246200Y-81744848D01*
X46582591Y-81744848D01*
X46582591Y-81534345D01*
X45653904Y-81534345D01*
X45653904Y-81744848D01*
X45455540Y-81744848D01*
X45362915Y-81621023D01*
X45292747Y-81576136D01*
X45210197Y-81544664D01*
X45116297Y-81526090D01*
X45012077Y-81519899D01*
X44939846Y-81521963D01*
X44853169Y-81527122D01*
X44763395Y-81537441D01*
X44681877Y-81552919D01*
X44681877Y-82811806D01*
X44509898Y-82811806D01*
X44509898Y-81333474D01*
X44681877Y-81333474D01*
X47583510Y-81333474D01*
X47755489Y-81333474D01*
X48314536Y-82172044D01*
X47755489Y-83010614D01*
X47583510Y-83010614D01*
X47112975Y-83010614D01*
X46246200Y-83010614D01*
G37*
D12*
X55005500Y-53356742D02*
X55005500Y-53831258D01*
X53960500Y-53356742D02*
X53960500Y-53831258D01*
X57405000Y-33015000D02*
X57405000Y-31015000D01*
X57405000Y-29115000D02*
X57405000Y-28575000D01*
X57405000Y-28575000D02*
X48005000Y-28575000D01*
X48005000Y-33015000D02*
X48005000Y-31015000D01*
X48005000Y-29115000D02*
X48005000Y-28575000D01*
X48759040Y-63638672D02*
X50199040Y-63638672D01*
X50199040Y-63068672D02*
X50199040Y-63638672D01*
X50199040Y-63068672D02*
X55399040Y-63068672D01*
X50199040Y-65158672D02*
X50199040Y-66178672D01*
X50199040Y-67698672D02*
X50199040Y-68718672D01*
X50199040Y-70238672D02*
X50199040Y-71258672D01*
X50199040Y-72778672D02*
X50199040Y-73798672D01*
X50199040Y-75318672D02*
X50199040Y-76338672D01*
X50199040Y-77858672D02*
X50199040Y-78878672D01*
X50199040Y-80398672D02*
X50199040Y-81418672D01*
X50199040Y-82938672D02*
X50199040Y-83508672D01*
X50199040Y-83508672D02*
X55399040Y-83508672D01*
X55399040Y-63068672D02*
X55399040Y-63638672D01*
X55399040Y-65158672D02*
X55399040Y-66178672D01*
X55399040Y-67698672D02*
X55399040Y-68718672D01*
X55399040Y-70238672D02*
X55399040Y-71258672D01*
X55399040Y-72778672D02*
X55399040Y-73798672D01*
X55399040Y-75318672D02*
X55399040Y-76338672D01*
X55399040Y-77858672D02*
X55399040Y-78878672D01*
X55399040Y-80398672D02*
X55399040Y-81418672D01*
X55399040Y-82938672D02*
X55399040Y-83508672D01*
G36*
X60537351Y-63986186D02*
G01*
X60621965Y-64082150D01*
X60665303Y-64220421D01*
X60677686Y-64381394D01*
X60673816Y-64472457D01*
X60662208Y-64555781D01*
X60610614Y-64693020D01*
X60515682Y-64783825D01*
X60370187Y-64816845D01*
X60347486Y-64816845D01*
X60324785Y-64814782D01*
X60324785Y-63956261D01*
X60361932Y-63951102D01*
X60399080Y-63950070D01*
X60537351Y-63986186D01*
G37*
G36*
X59660257Y-65219964D02*
G01*
X58473601Y-65219964D01*
X57951472Y-65219964D01*
X57779493Y-65219964D01*
X57220446Y-64381394D01*
X57951472Y-64381394D01*
X57960759Y-64536433D01*
X57988620Y-64671351D01*
X58033506Y-64785889D01*
X58093871Y-64879790D01*
X58168940Y-64953053D01*
X58257939Y-65005678D01*
X58359837Y-65037409D01*
X58473601Y-65047985D01*
X58599748Y-65042826D01*
X58705773Y-65027348D01*
X58729337Y-65021156D01*
X59022558Y-65021156D01*
X59251635Y-65021156D01*
X59251635Y-64172955D01*
X59328337Y-64314551D01*
X59401601Y-64455918D01*
X59471424Y-64597056D01*
X59537808Y-64738193D01*
X59600752Y-64879560D01*
X59660257Y-65021156D01*
X59864568Y-65021156D01*
X59864568Y-65006710D01*
X60070943Y-65006710D01*
X60210247Y-65030443D01*
X60343358Y-65037666D01*
X60467957Y-65028638D01*
X60581722Y-65001551D01*
X60682587Y-64954859D01*
X60768491Y-64887013D01*
X60838401Y-64796982D01*
X60891284Y-64683733D01*
X60924562Y-64545720D01*
X60935655Y-64381394D01*
X60925594Y-64220679D01*
X60895412Y-64085246D01*
X60847171Y-63973287D01*
X60782937Y-63882998D01*
X60702709Y-63814121D01*
X60606487Y-63766396D01*
X60496850Y-63738536D01*
X60376378Y-63729249D01*
X60233980Y-63735440D01*
X60070943Y-63760205D01*
X60070943Y-65006710D01*
X59864568Y-65006710D01*
X59864568Y-63743695D01*
X59635492Y-63743695D01*
X59635492Y-64529984D01*
X59599119Y-64449498D01*
X59556038Y-64356629D01*
X59507540Y-64256021D01*
X59454914Y-64152318D01*
X59399451Y-64046809D01*
X59342440Y-63940783D01*
X59284655Y-63838370D01*
X59226870Y-63743695D01*
X59022558Y-63743695D01*
X59022558Y-65021156D01*
X58729337Y-65021156D01*
X58847140Y-64990200D01*
X58847140Y-64352501D01*
X58593298Y-64352501D01*
X58593298Y-64818909D01*
X58543768Y-64825100D01*
X58494238Y-64827164D01*
X58370929Y-64800077D01*
X58281672Y-64718817D01*
X58241544Y-64633171D01*
X58217467Y-64520697D01*
X58209441Y-64381394D01*
X58213826Y-64286719D01*
X58226983Y-64200816D01*
X58284768Y-64060481D01*
X58386923Y-63968644D01*
X58539641Y-63935624D01*
X58675848Y-63958325D01*
X58787291Y-64009919D01*
X58853331Y-63807671D01*
X58811024Y-63782906D01*
X58739825Y-63751950D01*
X58637669Y-63726153D01*
X58504557Y-63714803D01*
X58392599Y-63725379D01*
X58287863Y-63757110D01*
X58193447Y-63809993D01*
X58112445Y-63884030D01*
X58045889Y-63978705D01*
X57994811Y-64093501D01*
X57962307Y-64227903D01*
X57951472Y-64381394D01*
X57220446Y-64381394D01*
X57779493Y-63542824D01*
X57951472Y-63542824D01*
X60935655Y-63542824D01*
X61107634Y-63542824D01*
X61107634Y-65219964D01*
X60935655Y-65219964D01*
X60343358Y-65219964D01*
X59660257Y-65219964D01*
G37*
X51675420Y-51433000D02*
X51956580Y-51433000D01*
X51675420Y-52453000D02*
X51956580Y-52453000D01*
G36*
X58084017Y-56863476D02*
G01*
X58154958Y-56898302D01*
X58200619Y-56960988D01*
X58215839Y-57056179D01*
X58200361Y-57156529D01*
X58153926Y-57222311D01*
X58077051Y-57258684D01*
X57970252Y-57270809D01*
X57867065Y-57270809D01*
X57867065Y-56858059D01*
X57930009Y-56852899D01*
X57992954Y-56851868D01*
X58084017Y-56863476D01*
G37*
G36*
X57867065Y-58094933D02*
G01*
X57613224Y-58094933D01*
X57441245Y-58094933D01*
X57326592Y-57922954D01*
X57613224Y-57922954D01*
X57867065Y-57922954D01*
X57867065Y-57491630D01*
X57957870Y-57491630D01*
X58110473Y-57480279D01*
X58238081Y-57446228D01*
X58340696Y-57389474D01*
X58415793Y-57307268D01*
X58460852Y-57196858D01*
X58475871Y-57058242D01*
X58460966Y-56921003D01*
X58416252Y-56811968D01*
X58341727Y-56731138D01*
X58240145Y-56675532D01*
X58126798Y-56645492D01*
X58581122Y-56645492D01*
X58585766Y-56803111D01*
X58591441Y-56966406D01*
X58598406Y-57132022D01*
X58606919Y-57296606D01*
X58616980Y-57459642D01*
X58628589Y-57620614D01*
X58642003Y-57776170D01*
X58657481Y-57922954D01*
X58867984Y-57922954D01*
X58911322Y-57787262D01*
X58958789Y-57640220D01*
X59007287Y-57493178D01*
X59053721Y-57357486D01*
X59099124Y-57497047D01*
X59144526Y-57643316D01*
X59189929Y-57788036D01*
X59235331Y-57922954D01*
X59445834Y-57922954D01*
X59459506Y-57776428D01*
X59471631Y-57621646D01*
X59482207Y-57461448D01*
X59491236Y-57298669D01*
X59498975Y-57134085D01*
X59505682Y-56968469D01*
X59511874Y-56804659D01*
X59518065Y-56645492D01*
X59282797Y-56645492D01*
X59283313Y-56769575D01*
X59284861Y-56898302D01*
X59286925Y-57028576D01*
X59288989Y-57157303D01*
X59291052Y-57283965D01*
X59293116Y-57408048D01*
X59294664Y-57526972D01*
X59295180Y-57638156D01*
X59248746Y-57473056D01*
X59205407Y-57322402D01*
X59169291Y-57194450D01*
X59144526Y-57097454D01*
X58958789Y-57097454D01*
X58929896Y-57198578D01*
X58889653Y-57338912D01*
X58844251Y-57493694D01*
X58801944Y-57638156D01*
X58802460Y-57526972D01*
X58804007Y-57408048D01*
X58806071Y-57283707D01*
X58808135Y-57156271D01*
X58810199Y-57027028D01*
X58812262Y-56897270D01*
X58814326Y-56769317D01*
X58816390Y-56645492D01*
X58581122Y-56645492D01*
X58126798Y-56645492D01*
X58114256Y-56642168D01*
X57964061Y-56631046D01*
X57883575Y-56633110D01*
X57790706Y-56638269D01*
X57696806Y-56647556D01*
X57613224Y-56662002D01*
X57613224Y-57922954D01*
X57326592Y-57922954D01*
X56895956Y-57277000D01*
X57441245Y-56459067D01*
X57613224Y-56459067D01*
X59518065Y-56459067D01*
X59690044Y-56459067D01*
X59690044Y-58094933D01*
X59518065Y-58094933D01*
X59445834Y-58094933D01*
X57867065Y-58094933D01*
G37*
G36*
X58416750Y-69059215D02*
G01*
X58488465Y-69094814D01*
X58534900Y-69155695D01*
X58550378Y-69243404D01*
X58492593Y-69386835D01*
X58416750Y-69424757D01*
X58304792Y-69437397D01*
X58249070Y-69437397D01*
X58249070Y-69053539D01*
X58290345Y-69048380D01*
X58325429Y-69047348D01*
X58416750Y-69059215D01*
G37*
G36*
X59394452Y-70317242D02*
G01*
X58892960Y-70317242D01*
X57995229Y-70317242D01*
X57823250Y-70317242D01*
X57690711Y-70118434D01*
X57995229Y-70118434D01*
X58249070Y-70118434D01*
X58249070Y-69647899D01*
X58381150Y-69647899D01*
X58451060Y-69764759D01*
X58516326Y-69880071D01*
X58575401Y-69996931D01*
X58626737Y-70118434D01*
X58892960Y-70118434D01*
X58862429Y-70048267D01*
X58998212Y-70048267D01*
X59140610Y-70111211D01*
X59251537Y-70136750D01*
X59394452Y-70145263D01*
X59539258Y-70134371D01*
X59657236Y-70101695D01*
X59748385Y-70047235D01*
X59835836Y-69928827D01*
X59864987Y-69769661D01*
X59856216Y-69673438D01*
X59829903Y-69595274D01*
X59740130Y-69479704D01*
X59620432Y-69405409D01*
X59495575Y-69354847D01*
X59416121Y-69323891D01*
X59343890Y-69285711D01*
X59291264Y-69236181D01*
X59270627Y-69171173D01*
X59293099Y-69089770D01*
X59360514Y-69040928D01*
X59472874Y-69024647D01*
X59618368Y-69045284D01*
X59732907Y-69094814D01*
X59749330Y-69051476D01*
X59999130Y-69051476D01*
X60335522Y-69051476D01*
X60335522Y-70118434D01*
X60591427Y-70118434D01*
X60591427Y-69051476D01*
X60927818Y-69051476D01*
X60927818Y-68840973D01*
X59999130Y-68840973D01*
X59999130Y-69051476D01*
X59749330Y-69051476D01*
X59807202Y-68898758D01*
X59659643Y-68838909D01*
X59564453Y-68818788D01*
X59454300Y-68812081D01*
X59327838Y-68823317D01*
X59220867Y-68857025D01*
X59133387Y-68913204D01*
X59045936Y-69033934D01*
X59016785Y-69193874D01*
X59049805Y-69345560D01*
X59133387Y-69447716D01*
X59245862Y-69515819D01*
X59365559Y-69563286D01*
X59452237Y-69599401D01*
X59530659Y-69642740D01*
X59588444Y-69697429D01*
X59611145Y-69767597D01*
X59601858Y-69828478D01*
X59567807Y-69882135D01*
X59500735Y-69919283D01*
X59394452Y-69932697D01*
X59291522Y-69925474D01*
X59205618Y-69903804D01*
X59072507Y-69841892D01*
X58998212Y-70048267D01*
X58862429Y-70048267D01*
X58834143Y-69983259D01*
X58762944Y-69840860D01*
X58686585Y-69704653D01*
X58612290Y-69585987D01*
X58702579Y-69527686D01*
X58762944Y-69447716D01*
X58796996Y-69351751D01*
X58808347Y-69245468D01*
X58799834Y-69145118D01*
X58774295Y-69058699D01*
X58676267Y-68927651D01*
X58606099Y-68882764D01*
X58523549Y-68851292D01*
X58429648Y-68832718D01*
X58325429Y-68826527D01*
X58253198Y-68828591D01*
X58166520Y-68833750D01*
X58076747Y-68844069D01*
X57995229Y-68859547D01*
X57995229Y-70118434D01*
X57690711Y-70118434D01*
X57264203Y-69478672D01*
X57823250Y-68640102D01*
X57995229Y-68640102D01*
X60927818Y-68640102D01*
X61099797Y-68640102D01*
X61099797Y-70317242D01*
X60927818Y-70317242D01*
X60591427Y-70317242D01*
X59394452Y-70317242D01*
G37*
G36*
X58022362Y-60673734D02*
G01*
X58094077Y-60709334D01*
X58140512Y-60770214D01*
X58155990Y-60857924D01*
X58098205Y-61001354D01*
X58022362Y-61039276D01*
X57910404Y-61051916D01*
X57854682Y-61051916D01*
X57854682Y-60668059D01*
X57895957Y-60662899D01*
X57931041Y-60661868D01*
X58022362Y-60673734D01*
G37*
G36*
X58498572Y-61904933D02*
G01*
X57600841Y-61904933D01*
X57428862Y-61904933D01*
X57314209Y-61732954D01*
X57600841Y-61732954D01*
X57854682Y-61732954D01*
X57854682Y-61262419D01*
X57986762Y-61262419D01*
X58056672Y-61379279D01*
X58121938Y-61494591D01*
X58181013Y-61611450D01*
X58232349Y-61732954D01*
X58498572Y-61732954D01*
X58543975Y-61732954D01*
X58818454Y-61732954D01*
X58865920Y-61621253D01*
X58921641Y-61496654D01*
X58981490Y-61367928D01*
X59041339Y-61243845D01*
X59101961Y-61371798D01*
X59160004Y-61499750D01*
X59212372Y-61622027D01*
X59255969Y-61732954D01*
X59530447Y-61732954D01*
X59474726Y-61597778D01*
X59436805Y-61515228D01*
X59393208Y-61426487D01*
X59344968Y-61333360D01*
X59293116Y-61237654D01*
X59238943Y-61142721D01*
X59183737Y-61051916D01*
X59509810Y-60455492D01*
X59253905Y-60455492D01*
X59041339Y-60864115D01*
X58839091Y-60455492D01*
X58564612Y-60455492D01*
X58898940Y-61058108D01*
X58848378Y-61148655D01*
X58795752Y-61242813D01*
X58743385Y-61337488D01*
X58693597Y-61429583D01*
X58647162Y-61517292D01*
X58604856Y-61598810D01*
X58543975Y-61732954D01*
X58498572Y-61732954D01*
X58439756Y-61597778D01*
X58368556Y-61455379D01*
X58292197Y-61319172D01*
X58217902Y-61200506D01*
X58308191Y-61142205D01*
X58368556Y-61062235D01*
X58402608Y-60966271D01*
X58413959Y-60859987D01*
X58405446Y-60759638D01*
X58379907Y-60673218D01*
X58281879Y-60542170D01*
X58211711Y-60497283D01*
X58129161Y-60465811D01*
X58035261Y-60447237D01*
X57931041Y-60441046D01*
X57858810Y-60443110D01*
X57772132Y-60448269D01*
X57682359Y-60458588D01*
X57600841Y-60474066D01*
X57600841Y-61732954D01*
X57314209Y-61732954D01*
X56883573Y-61087000D01*
X57428862Y-60269067D01*
X57600841Y-60269067D01*
X59530447Y-60269067D01*
X59702427Y-60269067D01*
X59702427Y-61904933D01*
X59530447Y-61904933D01*
X59255969Y-61904933D01*
X58498572Y-61904933D01*
G37*
X52052440Y-61619641D02*
X51577924Y-61619641D01*
X52052440Y-60574641D02*
X51577924Y-60574641D01*
G36*
X58525195Y-72122123D02*
G01*
X58584012Y-72255235D01*
X58563374Y-72347072D01*
X58510748Y-72402793D01*
X58437485Y-72429622D01*
X58352872Y-72436845D01*
X58289927Y-72434782D01*
X58231110Y-72428590D01*
X58231110Y-72081880D01*
X58367318Y-72081880D01*
X58525195Y-72122123D01*
G37*
G36*
X58414784Y-71575230D02*
G01*
X58472569Y-71595867D01*
X58511780Y-71639206D01*
X58526227Y-71712469D01*
X58476697Y-71829071D01*
X58330170Y-71871378D01*
X58231110Y-71871378D01*
X58231110Y-71578325D01*
X58286832Y-71572134D01*
X58346680Y-71570070D01*
X58414784Y-71575230D01*
G37*
G36*
X59518890Y-71590708D02*
G01*
X59579771Y-71685640D01*
X59608663Y-71827007D01*
X59614081Y-71911363D01*
X59615887Y-72001394D01*
X59614081Y-72091167D01*
X59608663Y-72174749D01*
X59579771Y-72316116D01*
X59517858Y-72412080D01*
X59413639Y-72447164D01*
X59308388Y-72412080D01*
X59247507Y-72317148D01*
X59218615Y-72175781D01*
X59213197Y-72091425D01*
X59211392Y-72001394D01*
X59213197Y-71911621D01*
X59218615Y-71828039D01*
X59247507Y-71686672D01*
X59308388Y-71590708D01*
X59413639Y-71555624D01*
X59518890Y-71590708D01*
G37*
G36*
X59415703Y-72839964D02*
G01*
X58332234Y-72839964D01*
X57977269Y-72839964D01*
X57805290Y-72839964D01*
X57658993Y-72620519D01*
X57977269Y-72620519D01*
X58066526Y-72636771D01*
X58156815Y-72648380D01*
X58246073Y-72655345D01*
X58332234Y-72657666D01*
X58434132Y-72652765D01*
X58529322Y-72638061D01*
X58614968Y-72611748D01*
X58688231Y-72572021D01*
X58794514Y-72448196D01*
X58823923Y-72361260D01*
X58833725Y-72255235D01*
X58822117Y-72168558D01*
X58787291Y-72086008D01*
X58719961Y-72013776D01*
X58695713Y-72001394D01*
X58953423Y-72001394D01*
X58960839Y-72156369D01*
X58983089Y-72291093D01*
X59020172Y-72405567D01*
X59072088Y-72499790D01*
X59163008Y-72593232D01*
X59277546Y-72649297D01*
X59415703Y-72667985D01*
X59550535Y-72649297D01*
X59663353Y-72593232D01*
X59754158Y-72499790D01*
X59806526Y-72405567D01*
X59843931Y-72291093D01*
X59866374Y-72156369D01*
X59873855Y-72001394D01*
X59866503Y-71846419D01*
X59844447Y-71711695D01*
X59807686Y-71597221D01*
X59795111Y-71574198D01*
X59981170Y-71574198D01*
X60317562Y-71574198D01*
X60317562Y-72641156D01*
X60573467Y-72641156D01*
X60573467Y-71574198D01*
X60909858Y-71574198D01*
X60909858Y-71363695D01*
X59981170Y-71363695D01*
X59981170Y-71574198D01*
X59795111Y-71574198D01*
X59756222Y-71502998D01*
X59665875Y-71409556D01*
X59551681Y-71353491D01*
X59413639Y-71334803D01*
X59279725Y-71353491D01*
X59166906Y-71409556D01*
X59075184Y-71502998D01*
X59021914Y-71597221D01*
X58983863Y-71711695D01*
X58961033Y-71846419D01*
X58953423Y-72001394D01*
X58695713Y-72001394D01*
X58610840Y-71958055D01*
X58729506Y-71846613D01*
X58762784Y-71771286D01*
X58773877Y-71685640D01*
X58755303Y-71565943D01*
X58685135Y-71457596D01*
X58542737Y-71379173D01*
X58438517Y-71356730D01*
X58307469Y-71349249D01*
X58136178Y-71358536D01*
X57977269Y-71380205D01*
X57977269Y-72620519D01*
X57658993Y-72620519D01*
X57246243Y-72001394D01*
X57805290Y-71162824D01*
X57977269Y-71162824D01*
X60909858Y-71162824D01*
X61081837Y-71162824D01*
X61081837Y-72839964D01*
X60909858Y-72839964D01*
X60573467Y-72839964D01*
X59415703Y-72839964D01*
G37*
G36*
X47278304Y-63986186D02*
G01*
X47362918Y-64082150D01*
X47406257Y-64220421D01*
X47418639Y-64381394D01*
X47414769Y-64472457D01*
X47403161Y-64555781D01*
X47351567Y-64693020D01*
X47256635Y-64783825D01*
X47111140Y-64816845D01*
X47088439Y-64816845D01*
X47065738Y-64814782D01*
X47065738Y-63956261D01*
X47102885Y-63951102D01*
X47140033Y-63950070D01*
X47278304Y-63986186D01*
G37*
G36*
X46401210Y-65219964D02*
G01*
X45214554Y-65219964D01*
X44692425Y-65219964D01*
X44520446Y-65219964D01*
X44520446Y-64381394D01*
X44692425Y-64381394D01*
X44701712Y-64536433D01*
X44729573Y-64671351D01*
X44774459Y-64785889D01*
X44834824Y-64879790D01*
X44909893Y-64953053D01*
X44998892Y-65005678D01*
X45100790Y-65037409D01*
X45214554Y-65047985D01*
X45340701Y-65042826D01*
X45446726Y-65027348D01*
X45470290Y-65021156D01*
X45763512Y-65021156D01*
X45992588Y-65021156D01*
X45992588Y-64172955D01*
X46069290Y-64314551D01*
X46142554Y-64455918D01*
X46212377Y-64597056D01*
X46278761Y-64738193D01*
X46341705Y-64879560D01*
X46401210Y-65021156D01*
X46605522Y-65021156D01*
X46605522Y-65006710D01*
X46811897Y-65006710D01*
X46951200Y-65030443D01*
X47084312Y-65037666D01*
X47208910Y-65028638D01*
X47322675Y-65001551D01*
X47423540Y-64954859D01*
X47509444Y-64887013D01*
X47579354Y-64796982D01*
X47632237Y-64683733D01*
X47665515Y-64545720D01*
X47676608Y-64381394D01*
X47666547Y-64220679D01*
X47636365Y-64085246D01*
X47588124Y-63973287D01*
X47523890Y-63882998D01*
X47443662Y-63814121D01*
X47347440Y-63766396D01*
X47237803Y-63738536D01*
X47117332Y-63729249D01*
X46974933Y-63735440D01*
X46811897Y-63760205D01*
X46811897Y-65006710D01*
X46605522Y-65006710D01*
X46605522Y-63743695D01*
X46376445Y-63743695D01*
X46376445Y-64529984D01*
X46340072Y-64449498D01*
X46296991Y-64356629D01*
X46248493Y-64256021D01*
X46195867Y-64152318D01*
X46140404Y-64046809D01*
X46083393Y-63940783D01*
X46025608Y-63838370D01*
X45967823Y-63743695D01*
X45763512Y-63743695D01*
X45763512Y-65021156D01*
X45470290Y-65021156D01*
X45588093Y-64990200D01*
X45588093Y-64352501D01*
X45334252Y-64352501D01*
X45334252Y-64818909D01*
X45284722Y-64825100D01*
X45235192Y-64827164D01*
X45111882Y-64800077D01*
X45022625Y-64718817D01*
X44982497Y-64633171D01*
X44958420Y-64520697D01*
X44950394Y-64381394D01*
X44954779Y-64286719D01*
X44967936Y-64200816D01*
X45025721Y-64060481D01*
X45127877Y-63968644D01*
X45280594Y-63935624D01*
X45416802Y-63958325D01*
X45528244Y-64009919D01*
X45594284Y-63807671D01*
X45551977Y-63782906D01*
X45480778Y-63751950D01*
X45378622Y-63726153D01*
X45245510Y-63714803D01*
X45133552Y-63725379D01*
X45028817Y-63757110D01*
X44934400Y-63809993D01*
X44853398Y-63884030D01*
X44786842Y-63978705D01*
X44735764Y-64093501D01*
X44703260Y-64227903D01*
X44692425Y-64381394D01*
X44520446Y-64381394D01*
X44520446Y-63542824D01*
X44692425Y-63542824D01*
X47676608Y-63542824D01*
X47848587Y-63542824D01*
X48407634Y-64381394D01*
X47848587Y-65219964D01*
X47676608Y-65219964D01*
X47084312Y-65219964D01*
X46401210Y-65219964D01*
G37*
X48497258Y-59704500D02*
X48022742Y-59704500D01*
X48497258Y-58659500D02*
X48022742Y-58659500D01*
G36*
X59542780Y-80475336D02*
G01*
X58477885Y-80475336D01*
X57922737Y-80475336D01*
X57750757Y-80475336D01*
X57191710Y-79636766D01*
X57922737Y-79636766D01*
X57931637Y-79787549D01*
X57958336Y-79920016D01*
X58002836Y-80034167D01*
X58065135Y-80130002D01*
X58174285Y-80226311D01*
X58311868Y-80284096D01*
X58477885Y-80303357D01*
X58590618Y-80296392D01*
X58689420Y-80275497D01*
X58834914Y-80214616D01*
X58770938Y-80014432D01*
X58666718Y-80059835D01*
X58502650Y-80082536D01*
X58355350Y-80053386D01*
X58256032Y-79965934D01*
X58214184Y-79876849D01*
X58189075Y-79765062D01*
X58180705Y-79630575D01*
X58187671Y-79515005D01*
X58208566Y-79420072D01*
X58280797Y-79284897D01*
X58381921Y-79212665D01*
X58498523Y-79190996D01*
X58652272Y-79212665D01*
X58766810Y-79265291D01*
X58785005Y-79209570D01*
X58950484Y-79209570D01*
X59286875Y-79209570D01*
X59286875Y-80276528D01*
X59542780Y-80276528D01*
X59542780Y-80206361D01*
X60013315Y-80206361D01*
X60155714Y-80269305D01*
X60266641Y-80294844D01*
X60409555Y-80303357D01*
X60554362Y-80292465D01*
X60672340Y-80259789D01*
X60763488Y-80205329D01*
X60850940Y-80086921D01*
X60880090Y-79927755D01*
X60871319Y-79831532D01*
X60845007Y-79753368D01*
X60755233Y-79637798D01*
X60635536Y-79563503D01*
X60510679Y-79512941D01*
X60431225Y-79481985D01*
X60358993Y-79443805D01*
X60306368Y-79394275D01*
X60285730Y-79329267D01*
X60308202Y-79247864D01*
X60375618Y-79199022D01*
X60487978Y-79182741D01*
X60633472Y-79203378D01*
X60748010Y-79252908D01*
X60822305Y-79056852D01*
X60674747Y-78997003D01*
X60579557Y-78976882D01*
X60469404Y-78970175D01*
X60342942Y-78981411D01*
X60235971Y-79015119D01*
X60148491Y-79071298D01*
X60061040Y-79192028D01*
X60031889Y-79351968D01*
X60064909Y-79503654D01*
X60148491Y-79605810D01*
X60260965Y-79673913D01*
X60380663Y-79721380D01*
X60467340Y-79757495D01*
X60545763Y-79800834D01*
X60603548Y-79855523D01*
X60626249Y-79925691D01*
X60616962Y-79986572D01*
X60582910Y-80040229D01*
X60515838Y-80077377D01*
X60409555Y-80090791D01*
X60306626Y-80083568D01*
X60220722Y-80061898D01*
X60087610Y-79999986D01*
X60013315Y-80206361D01*
X59542780Y-80206361D01*
X59542780Y-79209570D01*
X59879172Y-79209570D01*
X59879172Y-78999067D01*
X58950484Y-78999067D01*
X58950484Y-79209570D01*
X58785005Y-79209570D01*
X58832850Y-79063043D01*
X58790543Y-79038278D01*
X58721408Y-79007322D01*
X58625443Y-78981525D01*
X58502650Y-78970175D01*
X58381663Y-78981267D01*
X58270478Y-79014545D01*
X58171418Y-79069235D01*
X58086805Y-79144562D01*
X58017927Y-79239752D01*
X57966075Y-79354032D01*
X57933571Y-79486628D01*
X57922737Y-79636766D01*
X57191710Y-79636766D01*
X57750757Y-78798196D01*
X57922737Y-78798196D01*
X60880090Y-78798196D01*
X61052070Y-78798196D01*
X61052070Y-80475336D01*
X60880090Y-80475336D01*
X60409555Y-80475336D01*
X59542780Y-80475336D01*
G37*
X48082252Y-54758000D02*
X46659748Y-54758000D01*
X48082252Y-52938000D02*
X46659748Y-52938000D01*
G36*
X59485849Y-75337814D02*
G01*
X58893553Y-75337814D01*
X58721574Y-75337814D01*
X58181101Y-74527104D01*
X58466586Y-74098876D01*
X58893553Y-74098876D01*
X59229944Y-74098876D01*
X59229944Y-75165835D01*
X59485849Y-75165835D01*
X59896536Y-75165835D01*
X60171014Y-75165835D01*
X60218481Y-75054134D01*
X60274202Y-74929535D01*
X60334051Y-74800809D01*
X60393899Y-74676726D01*
X60454522Y-74804678D01*
X60512565Y-74932631D01*
X60564933Y-75054908D01*
X60608529Y-75165835D01*
X60883008Y-75165835D01*
X60827287Y-75030659D01*
X60789365Y-74948109D01*
X60745769Y-74859368D01*
X60697529Y-74766241D01*
X60645677Y-74670535D01*
X60591503Y-74575602D01*
X60536298Y-74484797D01*
X60862371Y-73888373D01*
X60606466Y-73888373D01*
X60393899Y-74296996D01*
X60191652Y-73888373D01*
X59917173Y-73888373D01*
X60251501Y-74490988D01*
X60200939Y-74581535D01*
X60148313Y-74675694D01*
X60095945Y-74770369D01*
X60046157Y-74862463D01*
X59999723Y-74950173D01*
X59957416Y-75031691D01*
X59896536Y-75165835D01*
X59485849Y-75165835D01*
X59485849Y-74098876D01*
X59822241Y-74098876D01*
X59822241Y-73888373D01*
X58893553Y-73888373D01*
X58893553Y-74098876D01*
X58466586Y-74098876D01*
X58721574Y-73716394D01*
X58893553Y-73716394D01*
X60883008Y-73716394D01*
X61054987Y-73716394D01*
X61054987Y-75337814D01*
X60883008Y-75337814D01*
X60608529Y-75337814D01*
X59485849Y-75337814D01*
G37*
X52056839Y-57796418D02*
X51582323Y-57796418D01*
X52056839Y-56751418D02*
X51582323Y-56751418D01*
X56134000Y-50907000D02*
X59584000Y-50907000D01*
X56134000Y-50907000D02*
X54184000Y-50907000D01*
X56134000Y-40787000D02*
X58084000Y-40787000D01*
X56134000Y-40787000D02*
X54184000Y-40787000D01*
G36*
X59336248Y-67777242D02*
G01*
X58343585Y-67777242D01*
X57988620Y-67777242D01*
X57816641Y-67777242D01*
X57655210Y-67535096D01*
X57988620Y-67535096D01*
X58052596Y-67557797D01*
X58142369Y-67580498D01*
X58243493Y-67598040D01*
X58343585Y-67605263D01*
X58462766Y-67597782D01*
X58564406Y-67575339D01*
X58649020Y-67539223D01*
X58717123Y-67490725D01*
X58805865Y-67361741D01*
X58834757Y-67198704D01*
X58821085Y-67095001D01*
X58780068Y-67006776D01*
X58714286Y-66936092D01*
X58626318Y-66885014D01*
X58741888Y-66777699D01*
X58785227Y-66631173D01*
X58781279Y-66608472D01*
X58964773Y-66608472D01*
X59008693Y-66752096D01*
X59053773Y-66889916D01*
X59100014Y-67021931D01*
X59147415Y-67148143D01*
X59211048Y-67305561D01*
X59273992Y-67448992D01*
X59336248Y-67578434D01*
X59548815Y-67578434D01*
X59570004Y-67535096D01*
X60052370Y-67535096D01*
X60116346Y-67557797D01*
X60206119Y-67580498D01*
X60307243Y-67598040D01*
X60407335Y-67605263D01*
X60526516Y-67597782D01*
X60628156Y-67575339D01*
X60712770Y-67539223D01*
X60780873Y-67490725D01*
X60869615Y-67361741D01*
X60898507Y-67198704D01*
X60884835Y-67095001D01*
X60843818Y-67006776D01*
X60778036Y-66936092D01*
X60690068Y-66885014D01*
X60805638Y-66777699D01*
X60848977Y-66631173D01*
X60824212Y-66488774D01*
X60747853Y-66374236D01*
X60616805Y-66298909D01*
X60530386Y-66278788D01*
X60430036Y-66272081D01*
X60320399Y-66281626D01*
X60222629Y-66310260D01*
X60075071Y-66385587D01*
X60165876Y-66571324D01*
X60288669Y-66512508D01*
X60432100Y-66488774D01*
X60548702Y-66529018D01*
X60591008Y-66639428D01*
X60571403Y-66717851D01*
X60520841Y-66767381D01*
X60450673Y-66794209D01*
X60372251Y-66802464D01*
X60277318Y-66802464D01*
X60277318Y-67012967D01*
X60355741Y-67012967D01*
X60468731Y-67023028D01*
X60560052Y-67053210D01*
X60620417Y-67108673D01*
X60640538Y-67194577D01*
X60587913Y-67332848D01*
X60515940Y-67374639D01*
X60405271Y-67388570D01*
X60307501Y-67382894D01*
X60224693Y-67365868D01*
X60101900Y-67322529D01*
X60052370Y-67535096D01*
X59570004Y-67535096D01*
X59612103Y-67448992D01*
X59678143Y-67305561D01*
X59746935Y-67148143D01*
X59798399Y-67021931D01*
X59847543Y-66889916D01*
X59894364Y-66752096D01*
X59938863Y-66608472D01*
X59680895Y-66608472D01*
X59659483Y-66689474D01*
X59632397Y-66775636D01*
X59601956Y-66864635D01*
X59570484Y-66954150D01*
X59538238Y-67042633D01*
X59505476Y-67128537D01*
X59445627Y-67283318D01*
X59388874Y-67128537D01*
X59359208Y-67042633D01*
X59330057Y-66954150D01*
X59301939Y-66864635D01*
X59275368Y-66775636D01*
X59251377Y-66689474D01*
X59230997Y-66608472D01*
X58964773Y-66608472D01*
X58781279Y-66608472D01*
X58760462Y-66488774D01*
X58684103Y-66374236D01*
X58553055Y-66298909D01*
X58466636Y-66278788D01*
X58366286Y-66272081D01*
X58256649Y-66281626D01*
X58158879Y-66310260D01*
X58011321Y-66385587D01*
X58102126Y-66571324D01*
X58224919Y-66512508D01*
X58368350Y-66488774D01*
X58484952Y-66529018D01*
X58527258Y-66639428D01*
X58507653Y-66717851D01*
X58457091Y-66767381D01*
X58386923Y-66794209D01*
X58308501Y-66802464D01*
X58213568Y-66802464D01*
X58213568Y-67012967D01*
X58291991Y-67012967D01*
X58404981Y-67023028D01*
X58496302Y-67053210D01*
X58556667Y-67108673D01*
X58576788Y-67194577D01*
X58524163Y-67332848D01*
X58452190Y-67374639D01*
X58341521Y-67388570D01*
X58243751Y-67382894D01*
X58160943Y-67365868D01*
X58038150Y-67322529D01*
X57988620Y-67535096D01*
X57655210Y-67535096D01*
X57257594Y-66938672D01*
X57816641Y-66100102D01*
X57988620Y-66100102D01*
X60898507Y-66100102D01*
X61070486Y-66100102D01*
X61070486Y-67777242D01*
X60898507Y-67777242D01*
X60407335Y-67777242D01*
X59336248Y-67777242D01*
G37*
X57420742Y-36815500D02*
X57895258Y-36815500D01*
X57420742Y-37860500D02*
X57895258Y-37860500D01*
X54879000Y-36667000D02*
X53579000Y-36667000D01*
X53579000Y-39787000D02*
X55579000Y-39787000D01*
X52062237Y-56031601D02*
X51587721Y-56031601D01*
X52062237Y-54986601D02*
X51587721Y-54986601D01*
X48497258Y-61609500D02*
X48022742Y-61609500D01*
X48497258Y-60564500D02*
X48022742Y-60564500D01*
X52051000Y-41620000D02*
X52051000Y-47630000D01*
X45231000Y-43870000D02*
X45231000Y-47630000D01*
X52051000Y-47630000D02*
X50791000Y-47630000D01*
X45231000Y-47630000D02*
X46491000Y-47630000D01*
X48082252Y-52345000D02*
X46659748Y-52345000D01*
X48082252Y-50525000D02*
X46659748Y-50525000D01*
X59577500Y-53356742D02*
X59577500Y-53831258D01*
X58532500Y-53356742D02*
X58532500Y-53831258D01*
G36*
X59368159Y-76698606D02*
G01*
X59439874Y-76734206D01*
X59486309Y-76795086D01*
X59501787Y-76882796D01*
X59444002Y-77026226D01*
X59368159Y-77064148D01*
X59256201Y-77076788D01*
X59200479Y-77076788D01*
X59200479Y-76692931D01*
X59241754Y-76687771D01*
X59276838Y-76686740D01*
X59368159Y-76698606D01*
G37*
G36*
X59844369Y-77929805D02*
G01*
X58946638Y-77929805D01*
X58774659Y-77929805D01*
X58660006Y-77757826D01*
X58946638Y-77757826D01*
X59200479Y-77757826D01*
X59200479Y-77287291D01*
X59332559Y-77287291D01*
X59402469Y-77404151D01*
X59467735Y-77519463D01*
X59526810Y-77636322D01*
X59578146Y-77757826D01*
X59844369Y-77757826D01*
X59889772Y-77757826D01*
X60164251Y-77757826D01*
X60211717Y-77646125D01*
X60267438Y-77521526D01*
X60327287Y-77392800D01*
X60387136Y-77268717D01*
X60447758Y-77396670D01*
X60505801Y-77524622D01*
X60558169Y-77646899D01*
X60601766Y-77757826D01*
X60876244Y-77757826D01*
X60820523Y-77622650D01*
X60782602Y-77540100D01*
X60739005Y-77451359D01*
X60690765Y-77358232D01*
X60638913Y-77262526D01*
X60584740Y-77167593D01*
X60529534Y-77076788D01*
X60855607Y-76480364D01*
X60599702Y-76480364D01*
X60387136Y-76888987D01*
X60184888Y-76480364D01*
X59910409Y-76480364D01*
X60244737Y-77082980D01*
X60194175Y-77173527D01*
X60141549Y-77267685D01*
X60089182Y-77362360D01*
X60039394Y-77454455D01*
X59992959Y-77542164D01*
X59950653Y-77623682D01*
X59889772Y-77757826D01*
X59844369Y-77757826D01*
X59785553Y-77622650D01*
X59714353Y-77480251D01*
X59637994Y-77344044D01*
X59563699Y-77225378D01*
X59653988Y-77167077D01*
X59714353Y-77087107D01*
X59748405Y-76991143D01*
X59759756Y-76884859D01*
X59751243Y-76784510D01*
X59725704Y-76698090D01*
X59627676Y-76567042D01*
X59557508Y-76522155D01*
X59474958Y-76490683D01*
X59381058Y-76472109D01*
X59276838Y-76465918D01*
X59204607Y-76467982D01*
X59117929Y-76473141D01*
X59028156Y-76483460D01*
X58946638Y-76498938D01*
X58946638Y-77757826D01*
X58660006Y-77757826D01*
X58229370Y-77111872D01*
X58774659Y-76293939D01*
X58946638Y-76293939D01*
X60876244Y-76293939D01*
X61048224Y-76293939D01*
X61048224Y-77929805D01*
X60876244Y-77929805D01*
X60601766Y-77929805D01*
X59844369Y-77929805D01*
G37*
X56349000Y-61822000D02*
X56349000Y-60352000D01*
X56349000Y-60352000D02*
X54064000Y-60352000D01*
X54064000Y-61822000D02*
X56349000Y-61822000D01*
X48082252Y-57171000D02*
X46659748Y-57171000D01*
X48082252Y-55351000D02*
X46659748Y-55351000D01*
X47223000Y-39550360D02*
X47223000Y-38127856D01*
X49043000Y-39550360D02*
X49043000Y-38127856D01*
G36*
X60412897Y-81754977D02*
G01*
X60484613Y-81790577D01*
X60531047Y-81851457D01*
X60546525Y-81939167D01*
X60488740Y-82082597D01*
X60412897Y-82120519D01*
X60300939Y-82133159D01*
X60245218Y-82133159D01*
X60245218Y-81749302D01*
X60286493Y-81744142D01*
X60321576Y-81743110D01*
X60412897Y-81754977D01*
G37*
G36*
X58394034Y-81779226D02*
G01*
X58478648Y-81875190D01*
X58521986Y-82013462D01*
X58534369Y-82174434D01*
X58530499Y-82265497D01*
X58518891Y-82348821D01*
X58467297Y-82486061D01*
X58372364Y-82576865D01*
X58226870Y-82609886D01*
X58204169Y-82609886D01*
X58181468Y-82607822D01*
X58181468Y-81749302D01*
X58218615Y-81744142D01*
X58255763Y-81743110D01*
X58394034Y-81779226D01*
G37*
G36*
X59491949Y-83002686D02*
G01*
X58200041Y-83002686D01*
X57927626Y-83002686D01*
X57755647Y-83002686D01*
X57620357Y-82799751D01*
X57927626Y-82799751D01*
X58066929Y-82823484D01*
X58200041Y-82830707D01*
X58324640Y-82821678D01*
X58438404Y-82794591D01*
X58539270Y-82747899D01*
X58625174Y-82680053D01*
X58695083Y-82590022D01*
X58747967Y-82476774D01*
X58781245Y-82338760D01*
X58792338Y-82174434D01*
X58782277Y-82013720D01*
X58752094Y-81878286D01*
X58703854Y-81766328D01*
X58690273Y-81747238D01*
X58899653Y-81747238D01*
X59236044Y-81747238D01*
X59236044Y-82814197D01*
X59491949Y-82814197D01*
X59991376Y-82814197D01*
X60245218Y-82814197D01*
X60245218Y-82343662D01*
X60377298Y-82343662D01*
X60447207Y-82460522D01*
X60512473Y-82575834D01*
X60571548Y-82692693D01*
X60622884Y-82814197D01*
X60889108Y-82814197D01*
X60830291Y-82679021D01*
X60759091Y-82536622D01*
X60682733Y-82400415D01*
X60608438Y-82281749D01*
X60698727Y-82223448D01*
X60759091Y-82143478D01*
X60793143Y-82047514D01*
X60804494Y-81941230D01*
X60795981Y-81840881D01*
X60770442Y-81754461D01*
X60672414Y-81623413D01*
X60602246Y-81578526D01*
X60519696Y-81547054D01*
X60425796Y-81528480D01*
X60321576Y-81522289D01*
X60249345Y-81524353D01*
X60162668Y-81529512D01*
X60072894Y-81539831D01*
X59991376Y-81555309D01*
X59991376Y-82814197D01*
X59491949Y-82814197D01*
X59491949Y-81747238D01*
X59828340Y-81747238D01*
X59828340Y-81536735D01*
X58899653Y-81536735D01*
X58899653Y-81747238D01*
X58690273Y-81747238D01*
X58639620Y-81676039D01*
X58559392Y-81607161D01*
X58463169Y-81559437D01*
X58353533Y-81531576D01*
X58233061Y-81522289D01*
X58090663Y-81528480D01*
X57927626Y-81553245D01*
X57927626Y-82799751D01*
X57620357Y-82799751D01*
X57204855Y-82176498D01*
X57755647Y-81350310D01*
X57927626Y-81350310D01*
X60889108Y-81350310D01*
X61061087Y-81350310D01*
X61061087Y-83002686D01*
X60889108Y-83002686D01*
X59491949Y-83002686D01*
G37*
X56349000Y-59917000D02*
X56349000Y-58447000D01*
X56349000Y-58447000D02*
X54064000Y-58447000D01*
X54064000Y-59917000D02*
X56349000Y-59917000D01*
X51965559Y-54241101D02*
X51684399Y-54241101D01*
X51965559Y-53221101D02*
X51684399Y-53221101D01*
X46570000Y-58698000D02*
X44870000Y-58698000D01*
X46570000Y-58698000D02*
X46570000Y-61248000D01*
X44870000Y-58698000D02*
X44870000Y-61248000D01*
X49759126Y-41012726D02*
X51759126Y-41012726D01*
X49759126Y-41012726D02*
X49759126Y-37162726D01*
X51759126Y-41012726D02*
X51759126Y-37162726D01*
X57420742Y-38339500D02*
X57895258Y-38339500D01*
X57420742Y-39384500D02*
X57895258Y-39384500D01*
X57929000Y-54294000D02*
X57929000Y-52894000D01*
X55609000Y-52894000D02*
X55609000Y-54794000D01*
G36*
X58160805Y-59992710D02*
G01*
X57568509Y-59992710D01*
X57396530Y-59992710D01*
X56856057Y-59182000D01*
X57141542Y-58753772D01*
X57568509Y-58753772D01*
X57904900Y-58753772D01*
X57904900Y-59820731D01*
X58160805Y-59820731D01*
X58571492Y-59820731D01*
X58845970Y-59820731D01*
X58893437Y-59709030D01*
X58949158Y-59584431D01*
X59009007Y-59455705D01*
X59068855Y-59331622D01*
X59129478Y-59459574D01*
X59187521Y-59587527D01*
X59239889Y-59709804D01*
X59283485Y-59820731D01*
X59557964Y-59820731D01*
X59502243Y-59685555D01*
X59464321Y-59603005D01*
X59420725Y-59514264D01*
X59372485Y-59421137D01*
X59320633Y-59325431D01*
X59266459Y-59230498D01*
X59211254Y-59139693D01*
X59537327Y-58543269D01*
X59281422Y-58543269D01*
X59068855Y-58951892D01*
X58866608Y-58543269D01*
X58592129Y-58543269D01*
X58926457Y-59145884D01*
X58875895Y-59236431D01*
X58823269Y-59330590D01*
X58770901Y-59425265D01*
X58721113Y-59517359D01*
X58674679Y-59605069D01*
X58632372Y-59686587D01*
X58571492Y-59820731D01*
X58160805Y-59820731D01*
X58160805Y-58753772D01*
X58497197Y-58753772D01*
X58497197Y-58543269D01*
X57568509Y-58543269D01*
X57568509Y-58753772D01*
X57141542Y-58753772D01*
X57396530Y-58371290D01*
X57568509Y-58371290D01*
X59557964Y-58371290D01*
X59729943Y-58371290D01*
X59729943Y-59992710D01*
X59557964Y-59992710D01*
X59283485Y-59992710D01*
X58160805Y-59992710D01*
G37*
X45647915Y-38171174D02*
X45647915Y-37890014D01*
X46667915Y-38171174D02*
X46667915Y-37890014D01*
X52053258Y-59704500D02*
X51578742Y-59704500D01*
X52053258Y-58659500D02*
X51578742Y-58659500D01*
G36*
X47204427Y-76688909D02*
G01*
X47289041Y-76784873D01*
X47332380Y-76923144D01*
X47344762Y-77084117D01*
X47340892Y-77175180D01*
X47329284Y-77258504D01*
X47277690Y-77395743D01*
X47182758Y-77486548D01*
X47037263Y-77519568D01*
X47014562Y-77519568D01*
X46991861Y-77517505D01*
X46991861Y-76658984D01*
X47029008Y-76653825D01*
X47066156Y-76652793D01*
X47204427Y-76688909D01*
G37*
G36*
X46327333Y-77922687D02*
G01*
X45140677Y-77922687D01*
X44618548Y-77922687D01*
X44446569Y-77922687D01*
X44446569Y-77084117D01*
X44618548Y-77084117D01*
X44627835Y-77239156D01*
X44655696Y-77374074D01*
X44700582Y-77488612D01*
X44760947Y-77582513D01*
X44836016Y-77655776D01*
X44925015Y-77708401D01*
X45026913Y-77740132D01*
X45140677Y-77750708D01*
X45266824Y-77745549D01*
X45372849Y-77730071D01*
X45396413Y-77723879D01*
X45689635Y-77723879D01*
X45918711Y-77723879D01*
X45918711Y-76875678D01*
X45995413Y-77017274D01*
X46068677Y-77158641D01*
X46138500Y-77299779D01*
X46204884Y-77440916D01*
X46267828Y-77582283D01*
X46327333Y-77723879D01*
X46531645Y-77723879D01*
X46531645Y-77709433D01*
X46738020Y-77709433D01*
X46877323Y-77733166D01*
X47010435Y-77740389D01*
X47135033Y-77731361D01*
X47248798Y-77704274D01*
X47349663Y-77657582D01*
X47435567Y-77589736D01*
X47505477Y-77499705D01*
X47558360Y-77386456D01*
X47591638Y-77248443D01*
X47602731Y-77084117D01*
X47592670Y-76923402D01*
X47562488Y-76787969D01*
X47514247Y-76676010D01*
X47450013Y-76585721D01*
X47369785Y-76516844D01*
X47273563Y-76469119D01*
X47163926Y-76441259D01*
X47043455Y-76431972D01*
X46901056Y-76438163D01*
X46738020Y-76462928D01*
X46738020Y-77709433D01*
X46531645Y-77709433D01*
X46531645Y-76446418D01*
X46302568Y-76446418D01*
X46302568Y-77232707D01*
X46266195Y-77152221D01*
X46223114Y-77059352D01*
X46174616Y-76958744D01*
X46121990Y-76855041D01*
X46066527Y-76749532D01*
X46009516Y-76643506D01*
X45951731Y-76541093D01*
X45893946Y-76446418D01*
X45689635Y-76446418D01*
X45689635Y-77723879D01*
X45396413Y-77723879D01*
X45514216Y-77692923D01*
X45514216Y-77055224D01*
X45260375Y-77055224D01*
X45260375Y-77521632D01*
X45210845Y-77527823D01*
X45161315Y-77529887D01*
X45038005Y-77502800D01*
X44948748Y-77421540D01*
X44908620Y-77335894D01*
X44884543Y-77223420D01*
X44876517Y-77084117D01*
X44880902Y-76989442D01*
X44894059Y-76903539D01*
X44951844Y-76763204D01*
X45054000Y-76671367D01*
X45206717Y-76638347D01*
X45342925Y-76661048D01*
X45454367Y-76712642D01*
X45520407Y-76510394D01*
X45478100Y-76485629D01*
X45406901Y-76454673D01*
X45304745Y-76428876D01*
X45171633Y-76417526D01*
X45059675Y-76428102D01*
X44954940Y-76459833D01*
X44860523Y-76512716D01*
X44779521Y-76586753D01*
X44712965Y-76681428D01*
X44661887Y-76796224D01*
X44629383Y-76930626D01*
X44618548Y-77084117D01*
X44446569Y-77084117D01*
X44446569Y-76245547D01*
X44618548Y-76245547D01*
X47602731Y-76245547D01*
X47774710Y-76245547D01*
X48333757Y-77084117D01*
X47774710Y-77922687D01*
X47602731Y-77922687D01*
X47010435Y-77922687D01*
X46327333Y-77922687D01*
G37*
G36*
X44991702Y-80472896D02*
G01*
X44647056Y-80472896D01*
X44475077Y-80472896D01*
X44475077Y-80234877D01*
X44647056Y-80234877D01*
X44705873Y-80257578D01*
X44791518Y-80279248D01*
X44890578Y-80294726D01*
X44991702Y-80300917D01*
X45109852Y-80293178D01*
X45212523Y-80269961D01*
X45299717Y-80232813D01*
X45371432Y-80183283D01*
X45466365Y-80052235D01*
X45497321Y-79888167D01*
X45483333Y-79768470D01*
X45441370Y-79668034D01*
X45371432Y-79586860D01*
X45273060Y-79525406D01*
X45145795Y-79484131D01*
X44989638Y-79463035D01*
X44999957Y-79345401D01*
X45003037Y-79304126D01*
X45635592Y-79304126D01*
X45679511Y-79447750D01*
X45724591Y-79585570D01*
X45770832Y-79717585D01*
X45818234Y-79843796D01*
X45881866Y-80001215D01*
X45944811Y-80144645D01*
X46007067Y-80274088D01*
X46219633Y-80274088D01*
X46282922Y-80144645D01*
X46348962Y-80001215D01*
X46417753Y-79843796D01*
X46469218Y-79717585D01*
X46518361Y-79585570D01*
X46565182Y-79447750D01*
X46609682Y-79304126D01*
X46351713Y-79304126D01*
X46330302Y-79385128D01*
X46303215Y-79471290D01*
X46272775Y-79560289D01*
X46241303Y-79649804D01*
X46209057Y-79738287D01*
X46176295Y-79824191D01*
X46116446Y-79978972D01*
X46059693Y-79824191D01*
X46030026Y-79738287D01*
X46000876Y-79649804D01*
X45972757Y-79560289D01*
X45946186Y-79471290D01*
X45922195Y-79385128D01*
X45901816Y-79304126D01*
X45635592Y-79304126D01*
X45003037Y-79304126D01*
X45010276Y-79207130D01*
X45449855Y-79207130D01*
X45449855Y-78996627D01*
X44797710Y-78996627D01*
X44789971Y-79154246D01*
X44779136Y-79317540D01*
X44764690Y-79485478D01*
X44746116Y-79657027D01*
X44887999Y-79661412D01*
X44999957Y-79674569D01*
X45149579Y-79724099D01*
X45219746Y-79800458D01*
X45237288Y-79898486D01*
X45226970Y-79966590D01*
X45188790Y-80025406D01*
X45112431Y-80067713D01*
X44989638Y-80084223D01*
X44893158Y-80079580D01*
X44814220Y-80065650D01*
X44698650Y-80024375D01*
X44647056Y-80234877D01*
X44475077Y-80234877D01*
X44475077Y-78824648D01*
X44647056Y-78824648D01*
X46609682Y-78824648D01*
X46781661Y-78824648D01*
X47331077Y-79648772D01*
X46781661Y-80472896D01*
X46609682Y-80472896D01*
X46007067Y-80472896D01*
X44991702Y-80472896D01*
G37*
X56349000Y-58014315D02*
X56349000Y-56544315D01*
X56349000Y-56544315D02*
X54064000Y-56544315D01*
X54064000Y-58014315D02*
X56349000Y-58014315D01*
%LPC*%
D13*
X54483000Y-52769000D03*
X54483000Y-54419000D03*
D14*
X55595000Y-33715000D03*
X49815000Y-33715000D03*
D15*
X55955000Y-35160000D03*
X55155000Y-35160000D03*
D16*
X53955000Y-35160000D03*
X52955000Y-35160000D03*
X52455000Y-35160000D03*
X51455000Y-35160000D03*
D15*
X50255000Y-35160000D03*
X49455000Y-35160000D03*
X49455000Y-35160000D03*
X50255000Y-35160000D03*
D16*
X50955000Y-35160000D03*
X51955000Y-35160000D03*
X53455000Y-35160000D03*
X54455000Y-35160000D03*
D15*
X55155000Y-35160000D03*
X55955000Y-35160000D03*
D17*
X57025000Y-34245000D03*
D18*
X57025000Y-30065000D03*
D17*
X48385000Y-34245000D03*
D18*
X48385000Y-30065000D03*
D19*
X50274040Y-64398672D03*
X55324040Y-64398672D03*
X50274040Y-66938672D03*
X55324040Y-66938672D03*
X50274040Y-69478672D03*
X55324040Y-69478672D03*
X50274040Y-72018672D03*
X55324040Y-72018672D03*
X50274040Y-74558672D03*
X55324040Y-74558672D03*
X50274040Y-77098672D03*
X55324040Y-77098672D03*
X50274040Y-79638672D03*
X55324040Y-79638672D03*
X50274040Y-82178672D03*
X55324040Y-82178672D03*
D20*
X51041000Y-51943000D03*
X52591000Y-51943000D03*
D21*
X52640182Y-61097141D03*
X50990182Y-61097141D03*
X49085000Y-59182000D03*
X47435000Y-59182000D03*
D22*
X48846000Y-53848000D03*
X45896000Y-53848000D03*
D21*
X52644581Y-57273918D03*
X50994581Y-57273918D03*
D23*
X58609000Y-50292000D03*
X58609000Y-49022000D03*
X58609000Y-47752000D03*
X58609000Y-46482000D03*
X58609000Y-45212000D03*
X58609000Y-43942000D03*
X58609000Y-42672000D03*
X58609000Y-41402000D03*
X53659000Y-41402000D03*
X53659000Y-42672000D03*
X53659000Y-43942000D03*
X53659000Y-45212000D03*
X53659000Y-46482000D03*
X53659000Y-47752000D03*
X53659000Y-49022000D03*
X53659000Y-50292000D03*
D24*
X56833000Y-37338000D03*
X58483000Y-37338000D03*
D25*
X55229000Y-38977000D03*
D26*
X55229000Y-37277000D03*
X53229000Y-37277000D03*
X53229000Y-39177000D03*
D21*
X52649979Y-55509101D03*
X50999979Y-55509101D03*
X49085000Y-61087000D03*
X47435000Y-61087000D03*
D27*
X50941000Y-42570000D03*
X48641000Y-42570000D03*
D28*
X48641000Y-48870000D03*
D27*
X46341000Y-42570000D03*
D22*
X48846000Y-51435000D03*
X45896000Y-51435000D03*
D13*
X59055000Y-52769000D03*
X59055000Y-54419000D03*
D29*
X55651500Y-61087000D03*
X54076500Y-61087000D03*
D22*
X48846000Y-56261000D03*
X45896000Y-56261000D03*
D30*
X48133000Y-40314108D03*
X48133000Y-37364108D03*
D29*
X55651500Y-59182000D03*
X54076500Y-59182000D03*
D31*
X52599979Y-53731101D03*
X51049979Y-53731101D03*
D32*
X45720000Y-59148000D03*
X45720000Y-61248000D03*
D33*
X50759126Y-40212726D03*
D34*
X50759126Y-39712726D03*
X50759126Y-37912726D03*
D33*
X50759126Y-37412726D03*
D24*
X56833000Y-38862000D03*
X58483000Y-38862000D03*
D35*
X56119000Y-54544000D03*
X56769000Y-54544000D03*
X57419000Y-54544000D03*
X57419000Y-52644000D03*
X56769000Y-52644000D03*
X56119000Y-52644000D03*
D36*
X46157915Y-38805594D03*
X46157915Y-37255594D03*
D21*
X52641000Y-59182000D03*
X50991000Y-59182000D03*
D29*
X55651500Y-57279315D03*
X54076500Y-57279315D03*
M02*
