G04 #@! TF.GenerationSoftware,KiCad,Pcbnew,7.0.1*
G04 #@! TF.CreationDate,2023-08-15T21:07:27+02:00*
G04 #@! TF.ProjectId,ESP_PROG,4553505f-5052-44f4-972e-6b696361645f,rev?*
G04 #@! TF.SameCoordinates,Original*
G04 #@! TF.FileFunction,Legend,Bot*
G04 #@! TF.FilePolarity,Positive*
%FSLAX46Y46*%
G04 Gerber Fmt 4.6, Leading zero omitted, Abs format (unit mm)*
G04 Created by KiCad (PCBNEW 7.0.1) date 2023-08-15 21:07:27*
%MOMM*%
%LPD*%
G01*
G04 APERTURE LIST*
%ADD10C,0.150000*%
%ADD11C,0.500000*%
%ADD12C,0.200000*%
%ADD13C,0.400000*%
%ADD14C,0.250000*%
%ADD15C,0.650000*%
%ADD16O,1.000000X2.100000*%
%ADD17O,1.000000X1.600000*%
G04 APERTURE END LIST*
D10*
X45339000Y-52959000D02*
X50800000Y-52959000D01*
X50800000Y-77724000D01*
X45339000Y-77724000D01*
X45339000Y-52959000D01*
D11*
X46931238Y-54753476D02*
X48359809Y-54753476D01*
X48359809Y-54753476D02*
X48645523Y-54658237D01*
X48645523Y-54658237D02*
X48836000Y-54467761D01*
X48836000Y-54467761D02*
X48931238Y-54182047D01*
X48931238Y-54182047D02*
X48931238Y-53991571D01*
X46931238Y-55705857D02*
X48550285Y-55705857D01*
X48550285Y-55705857D02*
X48740761Y-55801095D01*
X48740761Y-55801095D02*
X48836000Y-55896333D01*
X48836000Y-55896333D02*
X48931238Y-56086809D01*
X48931238Y-56086809D02*
X48931238Y-56467762D01*
X48931238Y-56467762D02*
X48836000Y-56658238D01*
X48836000Y-56658238D02*
X48740761Y-56753476D01*
X48740761Y-56753476D02*
X48550285Y-56848714D01*
X48550285Y-56848714D02*
X46931238Y-56848714D01*
X48931238Y-57801095D02*
X46931238Y-57801095D01*
X46931238Y-57801095D02*
X48359809Y-58467762D01*
X48359809Y-58467762D02*
X46931238Y-59134428D01*
X46931238Y-59134428D02*
X48931238Y-59134428D01*
X48931238Y-60086809D02*
X46931238Y-60086809D01*
X46931238Y-60086809D02*
X46931238Y-60848714D01*
X46931238Y-60848714D02*
X47026476Y-61039190D01*
X47026476Y-61039190D02*
X47121714Y-61134428D01*
X47121714Y-61134428D02*
X47312190Y-61229666D01*
X47312190Y-61229666D02*
X47597904Y-61229666D01*
X47597904Y-61229666D02*
X47788380Y-61134428D01*
X47788380Y-61134428D02*
X47883619Y-61039190D01*
X47883619Y-61039190D02*
X47978857Y-60848714D01*
X47978857Y-60848714D02*
X47978857Y-60086809D01*
X47883619Y-62086809D02*
X47883619Y-62753476D01*
X48931238Y-63039190D02*
X48931238Y-62086809D01*
X48931238Y-62086809D02*
X46931238Y-62086809D01*
X46931238Y-62086809D02*
X46931238Y-63039190D01*
X48931238Y-65039190D02*
X47978857Y-64372523D01*
X48931238Y-63896333D02*
X46931238Y-63896333D01*
X46931238Y-63896333D02*
X46931238Y-64658238D01*
X46931238Y-64658238D02*
X47026476Y-64848714D01*
X47026476Y-64848714D02*
X47121714Y-64943952D01*
X47121714Y-64943952D02*
X47312190Y-65039190D01*
X47312190Y-65039190D02*
X47597904Y-65039190D01*
X47597904Y-65039190D02*
X47788380Y-64943952D01*
X47788380Y-64943952D02*
X47883619Y-64848714D01*
X47883619Y-64848714D02*
X47978857Y-64658238D01*
X47978857Y-64658238D02*
X47978857Y-63896333D01*
D12*
X57878404Y-58882667D02*
X56578404Y-58882667D01*
X56578404Y-58882667D02*
X56578404Y-59192191D01*
X56578404Y-59192191D02*
X56640309Y-59377905D01*
X56640309Y-59377905D02*
X56764119Y-59501715D01*
X56764119Y-59501715D02*
X56887928Y-59563620D01*
X56887928Y-59563620D02*
X57135547Y-59625524D01*
X57135547Y-59625524D02*
X57321261Y-59625524D01*
X57321261Y-59625524D02*
X57568880Y-59563620D01*
X57568880Y-59563620D02*
X57692690Y-59501715D01*
X57692690Y-59501715D02*
X57816500Y-59377905D01*
X57816500Y-59377905D02*
X57878404Y-59192191D01*
X57878404Y-59192191D02*
X57878404Y-58882667D01*
X57816500Y-60677905D02*
X57878404Y-60554096D01*
X57878404Y-60554096D02*
X57878404Y-60306477D01*
X57878404Y-60306477D02*
X57816500Y-60182667D01*
X57816500Y-60182667D02*
X57692690Y-60120763D01*
X57692690Y-60120763D02*
X57197452Y-60120763D01*
X57197452Y-60120763D02*
X57073642Y-60182667D01*
X57073642Y-60182667D02*
X57011738Y-60306477D01*
X57011738Y-60306477D02*
X57011738Y-60554096D01*
X57011738Y-60554096D02*
X57073642Y-60677905D01*
X57073642Y-60677905D02*
X57197452Y-60739810D01*
X57197452Y-60739810D02*
X57321261Y-60739810D01*
X57321261Y-60739810D02*
X57445071Y-60120763D01*
X57816500Y-61235049D02*
X57878404Y-61358858D01*
X57878404Y-61358858D02*
X57878404Y-61606477D01*
X57878404Y-61606477D02*
X57816500Y-61730287D01*
X57816500Y-61730287D02*
X57692690Y-61792191D01*
X57692690Y-61792191D02*
X57630785Y-61792191D01*
X57630785Y-61792191D02*
X57506976Y-61730287D01*
X57506976Y-61730287D02*
X57445071Y-61606477D01*
X57445071Y-61606477D02*
X57445071Y-61420763D01*
X57445071Y-61420763D02*
X57383166Y-61296953D01*
X57383166Y-61296953D02*
X57259357Y-61235049D01*
X57259357Y-61235049D02*
X57197452Y-61235049D01*
X57197452Y-61235049D02*
X57073642Y-61296953D01*
X57073642Y-61296953D02*
X57011738Y-61420763D01*
X57011738Y-61420763D02*
X57011738Y-61606477D01*
X57011738Y-61606477D02*
X57073642Y-61730287D01*
X57878404Y-62349334D02*
X57011738Y-62349334D01*
X56578404Y-62349334D02*
X56640309Y-62287430D01*
X56640309Y-62287430D02*
X56702214Y-62349334D01*
X56702214Y-62349334D02*
X56640309Y-62411239D01*
X56640309Y-62411239D02*
X56578404Y-62349334D01*
X56578404Y-62349334D02*
X56702214Y-62349334D01*
X57011738Y-63525525D02*
X58064119Y-63525525D01*
X58064119Y-63525525D02*
X58187928Y-63463620D01*
X58187928Y-63463620D02*
X58249833Y-63401716D01*
X58249833Y-63401716D02*
X58311738Y-63277906D01*
X58311738Y-63277906D02*
X58311738Y-63092192D01*
X58311738Y-63092192D02*
X58249833Y-62968382D01*
X57816500Y-63525525D02*
X57878404Y-63401716D01*
X57878404Y-63401716D02*
X57878404Y-63154097D01*
X57878404Y-63154097D02*
X57816500Y-63030287D01*
X57816500Y-63030287D02*
X57754595Y-62968382D01*
X57754595Y-62968382D02*
X57630785Y-62906478D01*
X57630785Y-62906478D02*
X57259357Y-62906478D01*
X57259357Y-62906478D02*
X57135547Y-62968382D01*
X57135547Y-62968382D02*
X57073642Y-63030287D01*
X57073642Y-63030287D02*
X57011738Y-63154097D01*
X57011738Y-63154097D02*
X57011738Y-63401716D01*
X57011738Y-63401716D02*
X57073642Y-63525525D01*
X57011738Y-64144572D02*
X57878404Y-64144572D01*
X57135547Y-64144572D02*
X57073642Y-64206477D01*
X57073642Y-64206477D02*
X57011738Y-64330287D01*
X57011738Y-64330287D02*
X57011738Y-64516001D01*
X57011738Y-64516001D02*
X57073642Y-64639810D01*
X57073642Y-64639810D02*
X57197452Y-64701715D01*
X57197452Y-64701715D02*
X57878404Y-64701715D01*
X57816500Y-65816000D02*
X57878404Y-65692191D01*
X57878404Y-65692191D02*
X57878404Y-65444572D01*
X57878404Y-65444572D02*
X57816500Y-65320762D01*
X57816500Y-65320762D02*
X57692690Y-65258858D01*
X57692690Y-65258858D02*
X57197452Y-65258858D01*
X57197452Y-65258858D02*
X57073642Y-65320762D01*
X57073642Y-65320762D02*
X57011738Y-65444572D01*
X57011738Y-65444572D02*
X57011738Y-65692191D01*
X57011738Y-65692191D02*
X57073642Y-65816000D01*
X57073642Y-65816000D02*
X57197452Y-65877905D01*
X57197452Y-65877905D02*
X57321261Y-65877905D01*
X57321261Y-65877905D02*
X57445071Y-65258858D01*
X57878404Y-66992191D02*
X56578404Y-66992191D01*
X57816500Y-66992191D02*
X57878404Y-66868382D01*
X57878404Y-66868382D02*
X57878404Y-66620763D01*
X57878404Y-66620763D02*
X57816500Y-66496953D01*
X57816500Y-66496953D02*
X57754595Y-66435048D01*
X57754595Y-66435048D02*
X57630785Y-66373144D01*
X57630785Y-66373144D02*
X57259357Y-66373144D01*
X57259357Y-66373144D02*
X57135547Y-66435048D01*
X57135547Y-66435048D02*
X57073642Y-66496953D01*
X57073642Y-66496953D02*
X57011738Y-66620763D01*
X57011738Y-66620763D02*
X57011738Y-66868382D01*
X57011738Y-66868382D02*
X57073642Y-66992191D01*
X57878404Y-68601714D02*
X56578404Y-68601714D01*
X57073642Y-68601714D02*
X57011738Y-68725524D01*
X57011738Y-68725524D02*
X57011738Y-68973143D01*
X57011738Y-68973143D02*
X57073642Y-69096952D01*
X57073642Y-69096952D02*
X57135547Y-69158857D01*
X57135547Y-69158857D02*
X57259357Y-69220762D01*
X57259357Y-69220762D02*
X57630785Y-69220762D01*
X57630785Y-69220762D02*
X57754595Y-69158857D01*
X57754595Y-69158857D02*
X57816500Y-69096952D01*
X57816500Y-69096952D02*
X57878404Y-68973143D01*
X57878404Y-68973143D02*
X57878404Y-68725524D01*
X57878404Y-68725524D02*
X57816500Y-68601714D01*
X57011738Y-69654095D02*
X57878404Y-69963619D01*
X57011738Y-70273142D02*
X57878404Y-69963619D01*
X57878404Y-69963619D02*
X58187928Y-69839809D01*
X58187928Y-69839809D02*
X58249833Y-69777904D01*
X58249833Y-69777904D02*
X58311738Y-69654095D01*
D13*
X60395714Y-58930857D02*
X58595714Y-58930857D01*
X58595714Y-58930857D02*
X58595714Y-59616571D01*
X58595714Y-59616571D02*
X58681428Y-59788000D01*
X58681428Y-59788000D02*
X58767142Y-59873714D01*
X58767142Y-59873714D02*
X58938571Y-59959428D01*
X58938571Y-59959428D02*
X59195714Y-59959428D01*
X59195714Y-59959428D02*
X59367142Y-59873714D01*
X59367142Y-59873714D02*
X59452857Y-59788000D01*
X59452857Y-59788000D02*
X59538571Y-59616571D01*
X59538571Y-59616571D02*
X59538571Y-58930857D01*
X60395714Y-60730857D02*
X59195714Y-60730857D01*
X59538571Y-60730857D02*
X59367142Y-60816571D01*
X59367142Y-60816571D02*
X59281428Y-60902286D01*
X59281428Y-60902286D02*
X59195714Y-61073714D01*
X59195714Y-61073714D02*
X59195714Y-61245143D01*
X60395714Y-61845143D02*
X59195714Y-61845143D01*
X58595714Y-61845143D02*
X58681428Y-61759429D01*
X58681428Y-61759429D02*
X58767142Y-61845143D01*
X58767142Y-61845143D02*
X58681428Y-61930857D01*
X58681428Y-61930857D02*
X58595714Y-61845143D01*
X58595714Y-61845143D02*
X58767142Y-61845143D01*
X60310000Y-63473715D02*
X60395714Y-63302286D01*
X60395714Y-63302286D02*
X60395714Y-62959429D01*
X60395714Y-62959429D02*
X60310000Y-62788000D01*
X60310000Y-62788000D02*
X60224285Y-62702286D01*
X60224285Y-62702286D02*
X60052857Y-62616572D01*
X60052857Y-62616572D02*
X59538571Y-62616572D01*
X59538571Y-62616572D02*
X59367142Y-62702286D01*
X59367142Y-62702286D02*
X59281428Y-62788000D01*
X59281428Y-62788000D02*
X59195714Y-62959429D01*
X59195714Y-62959429D02*
X59195714Y-63302286D01*
X59195714Y-63302286D02*
X59281428Y-63473715D01*
X60310000Y-64930857D02*
X60395714Y-64759429D01*
X60395714Y-64759429D02*
X60395714Y-64416572D01*
X60395714Y-64416572D02*
X60310000Y-64245143D01*
X60310000Y-64245143D02*
X60138571Y-64159429D01*
X60138571Y-64159429D02*
X59452857Y-64159429D01*
X59452857Y-64159429D02*
X59281428Y-64245143D01*
X59281428Y-64245143D02*
X59195714Y-64416572D01*
X59195714Y-64416572D02*
X59195714Y-64759429D01*
X59195714Y-64759429D02*
X59281428Y-64930857D01*
X59281428Y-64930857D02*
X59452857Y-65016572D01*
X59452857Y-65016572D02*
X59624285Y-65016572D01*
X59624285Y-65016572D02*
X59795714Y-64159429D01*
X60395714Y-66045143D02*
X60310000Y-65873714D01*
X60310000Y-65873714D02*
X60138571Y-65788000D01*
X60138571Y-65788000D02*
X58595714Y-65788000D01*
X60310000Y-67416571D02*
X60395714Y-67245143D01*
X60395714Y-67245143D02*
X60395714Y-66902286D01*
X60395714Y-66902286D02*
X60310000Y-66730857D01*
X60310000Y-66730857D02*
X60138571Y-66645143D01*
X60138571Y-66645143D02*
X59452857Y-66645143D01*
X59452857Y-66645143D02*
X59281428Y-66730857D01*
X59281428Y-66730857D02*
X59195714Y-66902286D01*
X59195714Y-66902286D02*
X59195714Y-67245143D01*
X59195714Y-67245143D02*
X59281428Y-67416571D01*
X59281428Y-67416571D02*
X59452857Y-67502286D01*
X59452857Y-67502286D02*
X59624285Y-67502286D01*
X59624285Y-67502286D02*
X59795714Y-66645143D01*
X60310000Y-68188000D02*
X60395714Y-68359428D01*
X60395714Y-68359428D02*
X60395714Y-68702285D01*
X60395714Y-68702285D02*
X60310000Y-68873714D01*
X60310000Y-68873714D02*
X60138571Y-68959428D01*
X60138571Y-68959428D02*
X60052857Y-68959428D01*
X60052857Y-68959428D02*
X59881428Y-68873714D01*
X59881428Y-68873714D02*
X59795714Y-68702285D01*
X59795714Y-68702285D02*
X59795714Y-68445143D01*
X59795714Y-68445143D02*
X59710000Y-68273714D01*
X59710000Y-68273714D02*
X59538571Y-68188000D01*
X59538571Y-68188000D02*
X59452857Y-68188000D01*
X59452857Y-68188000D02*
X59281428Y-68273714D01*
X59281428Y-68273714D02*
X59195714Y-68445143D01*
X59195714Y-68445143D02*
X59195714Y-68702285D01*
X59195714Y-68702285D02*
X59281428Y-68873714D01*
X60310000Y-69645143D02*
X60395714Y-69816571D01*
X60395714Y-69816571D02*
X60395714Y-70159428D01*
X60395714Y-70159428D02*
X60310000Y-70330857D01*
X60310000Y-70330857D02*
X60138571Y-70416571D01*
X60138571Y-70416571D02*
X60052857Y-70416571D01*
X60052857Y-70416571D02*
X59881428Y-70330857D01*
X59881428Y-70330857D02*
X59795714Y-70159428D01*
X59795714Y-70159428D02*
X59795714Y-69902286D01*
X59795714Y-69902286D02*
X59710000Y-69730857D01*
X59710000Y-69730857D02*
X59538571Y-69645143D01*
X59538571Y-69645143D02*
X59452857Y-69645143D01*
X59452857Y-69645143D02*
X59281428Y-69730857D01*
X59281428Y-69730857D02*
X59195714Y-69902286D01*
X59195714Y-69902286D02*
X59195714Y-70159428D01*
X59195714Y-70159428D02*
X59281428Y-70330857D01*
X58595714Y-70930857D02*
X58595714Y-71959429D01*
X60395714Y-71445143D02*
X58595714Y-71445143D01*
X60395714Y-72816572D02*
X60310000Y-72645143D01*
X60310000Y-72645143D02*
X60224285Y-72559429D01*
X60224285Y-72559429D02*
X60052857Y-72473715D01*
X60052857Y-72473715D02*
X59538571Y-72473715D01*
X59538571Y-72473715D02*
X59367142Y-72559429D01*
X59367142Y-72559429D02*
X59281428Y-72645143D01*
X59281428Y-72645143D02*
X59195714Y-72816572D01*
X59195714Y-72816572D02*
X59195714Y-73073715D01*
X59195714Y-73073715D02*
X59281428Y-73245143D01*
X59281428Y-73245143D02*
X59367142Y-73330858D01*
X59367142Y-73330858D02*
X59538571Y-73416572D01*
X59538571Y-73416572D02*
X60052857Y-73416572D01*
X60052857Y-73416572D02*
X60224285Y-73330858D01*
X60224285Y-73330858D02*
X60310000Y-73245143D01*
X60310000Y-73245143D02*
X60395714Y-73073715D01*
X60395714Y-73073715D02*
X60395714Y-72816572D01*
X60395714Y-74445143D02*
X60310000Y-74273714D01*
X60310000Y-74273714D02*
X60224285Y-74188000D01*
X60224285Y-74188000D02*
X60052857Y-74102286D01*
X60052857Y-74102286D02*
X59538571Y-74102286D01*
X59538571Y-74102286D02*
X59367142Y-74188000D01*
X59367142Y-74188000D02*
X59281428Y-74273714D01*
X59281428Y-74273714D02*
X59195714Y-74445143D01*
X59195714Y-74445143D02*
X59195714Y-74702286D01*
X59195714Y-74702286D02*
X59281428Y-74873714D01*
X59281428Y-74873714D02*
X59367142Y-74959429D01*
X59367142Y-74959429D02*
X59538571Y-75045143D01*
X59538571Y-75045143D02*
X60052857Y-75045143D01*
X60052857Y-75045143D02*
X60224285Y-74959429D01*
X60224285Y-74959429D02*
X60310000Y-74873714D01*
X60310000Y-74873714D02*
X60395714Y-74702286D01*
X60395714Y-74702286D02*
X60395714Y-74445143D01*
X60395714Y-76073714D02*
X60310000Y-75902285D01*
X60310000Y-75902285D02*
X60138571Y-75816571D01*
X60138571Y-75816571D02*
X58595714Y-75816571D01*
X60395714Y-76759428D02*
X58595714Y-76759428D01*
X59710000Y-76930857D02*
X60395714Y-77445142D01*
X59195714Y-77445142D02*
X59881428Y-76759428D01*
X60395714Y-78216571D02*
X59195714Y-78216571D01*
X58595714Y-78216571D02*
X58681428Y-78130857D01*
X58681428Y-78130857D02*
X58767142Y-78216571D01*
X58767142Y-78216571D02*
X58681428Y-78302285D01*
X58681428Y-78302285D02*
X58595714Y-78216571D01*
X58595714Y-78216571D02*
X58767142Y-78216571D01*
X59195714Y-78816571D02*
X59195714Y-79502285D01*
X58595714Y-79073714D02*
X60138571Y-79073714D01*
X60138571Y-79073714D02*
X60310000Y-79159428D01*
X60310000Y-79159428D02*
X60395714Y-79330857D01*
X60395714Y-79330857D02*
X60395714Y-79502285D01*
D14*
X48543190Y-71615619D02*
X49838428Y-71615619D01*
X49838428Y-71615619D02*
X49990809Y-71691809D01*
X49990809Y-71691809D02*
X50067000Y-71768000D01*
X50067000Y-71768000D02*
X50143190Y-71920381D01*
X50143190Y-71920381D02*
X50143190Y-72225143D01*
X50143190Y-72225143D02*
X50067000Y-72377524D01*
X50067000Y-72377524D02*
X49990809Y-72453714D01*
X49990809Y-72453714D02*
X49838428Y-72529905D01*
X49838428Y-72529905D02*
X48543190Y-72529905D01*
X49686047Y-73215618D02*
X49686047Y-73977523D01*
X50143190Y-73063237D02*
X48543190Y-73596571D01*
X48543190Y-73596571D02*
X50143190Y-74129904D01*
X50143190Y-75577524D02*
X49381285Y-75044190D01*
X50143190Y-74663238D02*
X48543190Y-74663238D01*
X48543190Y-74663238D02*
X48543190Y-75272762D01*
X48543190Y-75272762D02*
X48619380Y-75425143D01*
X48619380Y-75425143D02*
X48695571Y-75501333D01*
X48695571Y-75501333D02*
X48847952Y-75577524D01*
X48847952Y-75577524D02*
X49076523Y-75577524D01*
X49076523Y-75577524D02*
X49228904Y-75501333D01*
X49228904Y-75501333D02*
X49305095Y-75425143D01*
X49305095Y-75425143D02*
X49381285Y-75272762D01*
X49381285Y-75272762D02*
X49381285Y-74663238D01*
X48543190Y-76034666D02*
X48543190Y-76948952D01*
X50143190Y-76491809D02*
X48543190Y-76491809D01*
X46003190Y-71602905D02*
X47298428Y-71602905D01*
X47298428Y-71602905D02*
X47450809Y-71679095D01*
X47450809Y-71679095D02*
X47527000Y-71755286D01*
X47527000Y-71755286D02*
X47603190Y-71907667D01*
X47603190Y-71907667D02*
X47603190Y-72212429D01*
X47603190Y-72212429D02*
X47527000Y-72364810D01*
X47527000Y-72364810D02*
X47450809Y-72441000D01*
X47450809Y-72441000D02*
X47298428Y-72517191D01*
X47298428Y-72517191D02*
X46003190Y-72517191D01*
X47603190Y-73279095D02*
X46003190Y-73279095D01*
X46003190Y-73279095D02*
X46003190Y-73888619D01*
X46003190Y-73888619D02*
X46079380Y-74041000D01*
X46079380Y-74041000D02*
X46155571Y-74117190D01*
X46155571Y-74117190D02*
X46307952Y-74193381D01*
X46307952Y-74193381D02*
X46536523Y-74193381D01*
X46536523Y-74193381D02*
X46688904Y-74117190D01*
X46688904Y-74117190D02*
X46765095Y-74041000D01*
X46765095Y-74041000D02*
X46841285Y-73888619D01*
X46841285Y-73888619D02*
X46841285Y-73279095D01*
X47603190Y-74879095D02*
X46003190Y-74879095D01*
X46003190Y-74879095D02*
X46003190Y-75260047D01*
X46003190Y-75260047D02*
X46079380Y-75488619D01*
X46079380Y-75488619D02*
X46231761Y-75641000D01*
X46231761Y-75641000D02*
X46384142Y-75717190D01*
X46384142Y-75717190D02*
X46688904Y-75793381D01*
X46688904Y-75793381D02*
X46917476Y-75793381D01*
X46917476Y-75793381D02*
X47222238Y-75717190D01*
X47222238Y-75717190D02*
X47374619Y-75641000D01*
X47374619Y-75641000D02*
X47527000Y-75488619D01*
X47527000Y-75488619D02*
X47603190Y-75260047D01*
X47603190Y-75260047D02*
X47603190Y-74879095D01*
X47603190Y-76479095D02*
X46003190Y-76479095D01*
G36*
X49386807Y-66885644D02*
G01*
X49490630Y-66892311D01*
X49664620Y-66927871D01*
X49781460Y-67002801D01*
X49824640Y-67132341D01*
X49781460Y-67260611D01*
X49663350Y-67336811D01*
X49489360Y-67372371D01*
X49386490Y-67379039D01*
X49276000Y-67381261D01*
X49165192Y-67379039D01*
X49061370Y-67372371D01*
X48887380Y-67336811D01*
X48770540Y-67261881D01*
X48727360Y-67132341D01*
X48770540Y-67002801D01*
X48888650Y-66927871D01*
X49062640Y-66892311D01*
X49165510Y-66885644D01*
X49276000Y-66883421D01*
X49386807Y-66885644D01*
G37*
G36*
X50308087Y-67134881D02*
G01*
X50308087Y-67927361D01*
X50308087Y-69197361D01*
X50308087Y-70160021D01*
X50308087Y-70371688D01*
X49276000Y-71059746D01*
X48243913Y-70371688D01*
X48243913Y-70160021D01*
X48491140Y-70160021D01*
X48750220Y-70160021D01*
X48750220Y-69509781D01*
X49131220Y-69509781D01*
X49131220Y-70078741D01*
X49390300Y-70078741D01*
X49390300Y-69509781D01*
X50063400Y-69509781D01*
X50063400Y-69197361D01*
X48491140Y-69197361D01*
X48491140Y-70160021D01*
X48243913Y-70160021D01*
X48243913Y-68890021D01*
X48491140Y-68890021D01*
X48750220Y-68890021D01*
X48750220Y-68239781D01*
X49131220Y-68239781D01*
X49131220Y-68808741D01*
X49390300Y-68808741D01*
X49390300Y-68239781D01*
X50063400Y-68239781D01*
X50063400Y-67927361D01*
X48491140Y-67927361D01*
X48491140Y-68890021D01*
X48243913Y-68890021D01*
X48243913Y-67132341D01*
X48455580Y-67132341D01*
X48478581Y-67302239D01*
X48547584Y-67442786D01*
X48662590Y-67553981D01*
X48778557Y-67617322D01*
X48919447Y-67662566D01*
X49085262Y-67689712D01*
X49276000Y-67698761D01*
X49466738Y-67689554D01*
X49632552Y-67661931D01*
X49773443Y-67615894D01*
X49889410Y-67551441D01*
X50004416Y-67439681D01*
X50073419Y-67300828D01*
X50096420Y-67134881D01*
X50073419Y-66964842D01*
X50004416Y-66823872D01*
X49889410Y-66711971D01*
X49773443Y-66648074D01*
X49632552Y-66602434D01*
X49466738Y-66575049D01*
X49276000Y-66565921D01*
X49085262Y-66575287D01*
X48919447Y-66603386D01*
X48778557Y-66650217D01*
X48662590Y-66715781D01*
X48547584Y-66828670D01*
X48478581Y-66967523D01*
X48455580Y-67132341D01*
X48243913Y-67132341D01*
X48243913Y-66565921D01*
X48243913Y-66354254D01*
X50308087Y-66354254D01*
X50308087Y-66565921D01*
X50308087Y-67134881D01*
G37*
G36*
X46973807Y-66997404D02*
G01*
X47077630Y-67004071D01*
X47251620Y-67039631D01*
X47368460Y-67114561D01*
X47411640Y-67244101D01*
X47368460Y-67372371D01*
X47250350Y-67448571D01*
X47076360Y-67484131D01*
X46973490Y-67490799D01*
X46863000Y-67493021D01*
X46752192Y-67490799D01*
X46648370Y-67484131D01*
X46474380Y-67448571D01*
X46357540Y-67373641D01*
X46314360Y-67244101D01*
X46357540Y-67114561D01*
X46475650Y-67039631D01*
X46649640Y-67004071D01*
X46752510Y-66997404D01*
X46863000Y-66995181D01*
X46973807Y-66997404D01*
G37*
G36*
X47895087Y-67246641D02*
G01*
X47895087Y-68780801D01*
X47895087Y-69032261D01*
X47895087Y-69243928D01*
X46863000Y-69931986D01*
X45830913Y-69243928D01*
X45830913Y-69032261D01*
X46078140Y-69032261D01*
X47650400Y-69032261D01*
X47650400Y-68780801D01*
X47476128Y-68707564D01*
X47302138Y-68630094D01*
X47128430Y-68548391D01*
X46954722Y-68462454D01*
X46780732Y-68372284D01*
X46606460Y-68277881D01*
X47650400Y-68277881D01*
X47650400Y-67995941D01*
X46078140Y-67995941D01*
X46078140Y-68247401D01*
X46194662Y-68318521D01*
X46320710Y-68389641D01*
X46451202Y-68459809D01*
X46581060Y-68528071D01*
X46708695Y-68592841D01*
X46832520Y-68652531D01*
X46946820Y-68705554D01*
X47045880Y-68750321D01*
X46078140Y-68750321D01*
X46078140Y-69032261D01*
X45830913Y-69032261D01*
X45830913Y-67244101D01*
X46042580Y-67244101D01*
X46065581Y-67413999D01*
X46134584Y-67554546D01*
X46249590Y-67665741D01*
X46365557Y-67729082D01*
X46506447Y-67774326D01*
X46672262Y-67801472D01*
X46863000Y-67810521D01*
X47053738Y-67801314D01*
X47219552Y-67773691D01*
X47360443Y-67727654D01*
X47476410Y-67663201D01*
X47591416Y-67551441D01*
X47660419Y-67412588D01*
X47683420Y-67246641D01*
X47660419Y-67076602D01*
X47591416Y-66935632D01*
X47476410Y-66823731D01*
X47360443Y-66759834D01*
X47219552Y-66714194D01*
X47053738Y-66686809D01*
X46863000Y-66677681D01*
X46672262Y-66687047D01*
X46506447Y-66715146D01*
X46365557Y-66761977D01*
X46249590Y-66827541D01*
X46134584Y-66940430D01*
X46065581Y-67079283D01*
X46042580Y-67244101D01*
X45830913Y-67244101D01*
X45830913Y-66677681D01*
X45830913Y-66466014D01*
X47895087Y-66466014D01*
X47895087Y-66677681D01*
X47895087Y-67246641D01*
G37*
G36*
X50583306Y-42695019D02*
G01*
X50678556Y-42706925D01*
X50678556Y-43592750D01*
X50549969Y-43592750D01*
X50291603Y-43563580D01*
X50116581Y-43476069D01*
X49983231Y-43145075D01*
X50018950Y-42942669D01*
X50126106Y-42802175D01*
X50291603Y-42720022D01*
X50502344Y-42692637D01*
X50583306Y-42695019D01*
G37*
G36*
X52914550Y-42695019D02*
G01*
X53059806Y-42706925D01*
X53059806Y-43659425D01*
X52821681Y-43659425D01*
X52575222Y-43631445D01*
X52397819Y-43547506D01*
X52290662Y-43395702D01*
X52254944Y-43164125D01*
X52290067Y-42944455D01*
X52395437Y-42799794D01*
X52559148Y-42719427D01*
X52769294Y-42692637D01*
X52914550Y-42695019D01*
G37*
G36*
X48192531Y-42740262D02*
G01*
X48333025Y-42961719D01*
X48399700Y-43287950D01*
X48412202Y-43480831D01*
X48416369Y-43688000D01*
X48412202Y-43895764D01*
X48399700Y-44090431D01*
X48333025Y-44416662D01*
X48192531Y-44635737D01*
X47949644Y-44716700D01*
X47709137Y-44635737D01*
X47566262Y-44414281D01*
X47499587Y-44088050D01*
X47487086Y-43895169D01*
X47482919Y-43688000D01*
X47487086Y-43480236D01*
X47499587Y-43285569D01*
X47566262Y-42959337D01*
X47706756Y-42740262D01*
X47949644Y-42659300D01*
X48192531Y-42740262D01*
G37*
G36*
X56974581Y-45623162D02*
G01*
X56026844Y-45623162D01*
X53059806Y-45623162D01*
X49192656Y-45623162D01*
X47944881Y-45623162D01*
X45425519Y-45623162D01*
X44549219Y-45623162D01*
X44152344Y-45623162D01*
X44152344Y-42364025D01*
X44549219Y-42364025D01*
X44701619Y-42830750D01*
X44958794Y-42711687D01*
X45273119Y-42659300D01*
X45625544Y-42735500D01*
X45861287Y-42947431D01*
X45994637Y-43271281D01*
X46024998Y-43469520D01*
X46035119Y-43688000D01*
X46016598Y-44009469D01*
X45961035Y-44269025D01*
X45868431Y-44466669D01*
X45662453Y-44654192D01*
X45377894Y-44716700D01*
X45263594Y-44711937D01*
X45149294Y-44697650D01*
X45149294Y-43621325D01*
X44563506Y-43621325D01*
X44563506Y-45092937D01*
X44889737Y-45178662D01*
X45134411Y-45214381D01*
X45425519Y-45226287D01*
X45688052Y-45201880D01*
X45923200Y-45128656D01*
X46128583Y-45007212D01*
X46301819Y-44838144D01*
X46441122Y-44621450D01*
X46544706Y-44357131D01*
X46609000Y-44045783D01*
X46630431Y-43688000D01*
X46887606Y-43688000D01*
X46904870Y-44045634D01*
X46956662Y-44356536D01*
X47042983Y-44620706D01*
X47163831Y-44838144D01*
X47373381Y-45053779D01*
X47633731Y-45183160D01*
X47944881Y-45226287D01*
X48263704Y-45183160D01*
X48302081Y-45164375D01*
X49192656Y-45164375D01*
X49807019Y-45164375D01*
X49925486Y-44883983D01*
X50061812Y-44614306D01*
X50212427Y-44348202D01*
X50373756Y-44078525D01*
X50678556Y-44078525D01*
X50678556Y-45164375D01*
X51264344Y-45164375D01*
X51264344Y-43168887D01*
X51654869Y-43168887D01*
X51689529Y-43488769D01*
X51793510Y-43743562D01*
X51966812Y-43933269D01*
X52203615Y-44064237D01*
X52498096Y-44142819D01*
X52850256Y-44169012D01*
X53059806Y-44169012D01*
X53059806Y-45164375D01*
X53645594Y-45164375D01*
X54155181Y-45164375D01*
X56026844Y-45164375D01*
X56503094Y-45164375D01*
X56974581Y-45164375D01*
X57111900Y-44837615D01*
X57257156Y-44511383D01*
X57410350Y-44185681D01*
X57571481Y-43859979D01*
X57740550Y-43533748D01*
X57917556Y-43206987D01*
X57917556Y-45164375D01*
X58446194Y-45164375D01*
X58446194Y-44097575D01*
X58851006Y-44097575D01*
X58862912Y-44342844D01*
X58898631Y-44564300D01*
X58964116Y-44758372D01*
X59065319Y-44921487D01*
X59203431Y-45051861D01*
X59379644Y-45147706D01*
X59598719Y-45206642D01*
X59865419Y-45226287D01*
X60127952Y-45206642D01*
X60344050Y-45147706D01*
X60651231Y-44921487D01*
X60748862Y-44758372D01*
X60813156Y-44564300D01*
X60848875Y-44342844D01*
X60860781Y-44097575D01*
X60860781Y-42216387D01*
X60270231Y-42216387D01*
X60270231Y-44059475D01*
X60251181Y-44371419D01*
X60186887Y-44573825D01*
X60060681Y-44683362D01*
X59855894Y-44716700D01*
X59651106Y-44683362D01*
X59522519Y-44571444D01*
X59455844Y-44366656D01*
X59436794Y-44054712D01*
X59436794Y-42216387D01*
X58851006Y-42216387D01*
X58851006Y-44097575D01*
X58446194Y-44097575D01*
X58446194Y-42216387D01*
X57974706Y-42216387D01*
X57841356Y-42434867D01*
X57708006Y-42671206D01*
X57576442Y-42915880D01*
X57448450Y-43159362D01*
X57327006Y-43398678D01*
X57215087Y-43630850D01*
X57115670Y-43845162D01*
X57031731Y-44030900D01*
X57031731Y-42216387D01*
X56503094Y-42216387D01*
X56503094Y-45164375D01*
X56026844Y-45164375D01*
X56026844Y-44678600D01*
X55383906Y-44678600D01*
X55383906Y-42702162D01*
X56026844Y-42702162D01*
X56026844Y-42216387D01*
X54155181Y-42216387D01*
X54155181Y-42702162D01*
X54793356Y-42702162D01*
X54793356Y-44678600D01*
X54155181Y-44678600D01*
X54155181Y-45164375D01*
X53645594Y-45164375D01*
X53645594Y-42254487D01*
X53452712Y-42221150D01*
X53236019Y-42199719D01*
X53021706Y-42187812D01*
X52835969Y-42183050D01*
X52489365Y-42208715D01*
X52198852Y-42285708D01*
X51964431Y-42414031D01*
X51792452Y-42600562D01*
X51689265Y-42852181D01*
X51654869Y-43168887D01*
X51264344Y-43168887D01*
X51264344Y-42259250D01*
X51076225Y-42223531D01*
X50869056Y-42199719D01*
X50669031Y-42187812D01*
X50502344Y-42183050D01*
X50261837Y-42197337D01*
X50045144Y-42240200D01*
X49854644Y-42312828D01*
X49692719Y-42416412D01*
X49466500Y-42718831D01*
X49407564Y-42918261D01*
X49387919Y-43149837D01*
X49414112Y-43395106D01*
X49492694Y-43616562D01*
X49631997Y-43801109D01*
X49840356Y-43935650D01*
X49668906Y-44209494D01*
X49492694Y-44523819D01*
X49328387Y-44852431D01*
X49192656Y-45164375D01*
X48302081Y-45164375D01*
X48528023Y-45053779D01*
X48737837Y-44838144D01*
X48857644Y-44620706D01*
X48943220Y-44356536D01*
X48994566Y-44045634D01*
X49011681Y-43688000D01*
X48994120Y-43330366D01*
X48941434Y-43019464D01*
X48853626Y-42755294D01*
X48730694Y-42537856D01*
X48519027Y-42322221D01*
X48258677Y-42192840D01*
X47949644Y-42149712D01*
X47631085Y-42192840D01*
X47367560Y-42322221D01*
X47159069Y-42537856D01*
X47040304Y-42755294D01*
X46955472Y-43019464D01*
X46904573Y-43330366D01*
X46887606Y-43688000D01*
X46630431Y-43688000D01*
X46605428Y-43333789D01*
X46530419Y-43023631D01*
X46412547Y-42758717D01*
X46258956Y-42540237D01*
X46072028Y-42369383D01*
X45854144Y-42247344D01*
X45612447Y-42174120D01*
X45354081Y-42149712D01*
X45046900Y-42175906D01*
X44811156Y-42235437D01*
X44646850Y-42306875D01*
X44549219Y-42364025D01*
X44152344Y-42364025D01*
X44152344Y-41752837D01*
X44549219Y-41752837D01*
X60860781Y-41752837D01*
X61257656Y-41752837D01*
X61257656Y-45623162D01*
X60860781Y-45623162D01*
X59865419Y-45623162D01*
X56974581Y-45623162D01*
G37*
%LPC*%
D15*
X55595000Y-33715000D03*
X49815000Y-33715000D03*
D16*
X57025000Y-34245000D03*
D17*
X57025000Y-30065000D03*
D16*
X48385000Y-34245000D03*
D17*
X48385000Y-30065000D03*
M02*
