G04 #@! TF.GenerationSoftware,KiCad,Pcbnew,7.0.1*
G04 #@! TF.CreationDate,2023-08-15T21:07:27+02:00*
G04 #@! TF.ProjectId,ESP_PROG,4553505f-5052-44f4-972e-6b696361645f,rev?*
G04 #@! TF.SameCoordinates,Original*
G04 #@! TF.FileFunction,Copper,L2,Bot*
G04 #@! TF.FilePolarity,Positive*
%FSLAX46Y46*%
G04 Gerber Fmt 4.6, Leading zero omitted, Abs format (unit mm)*
G04 Created by KiCad (PCBNEW 7.0.1) date 2023-08-15 21:07:27*
%MOMM*%
%LPD*%
G01*
G04 APERTURE LIST*
G04 #@! TA.AperFunction,ComponentPad*
%ADD10O,1.000000X2.100000*%
G04 #@! TD*
G04 #@! TA.AperFunction,ComponentPad*
%ADD11O,1.000000X1.600000*%
G04 #@! TD*
G04 #@! TA.AperFunction,ViaPad*
%ADD12C,0.800000*%
G04 #@! TD*
G04 #@! TA.AperFunction,ViaPad*
%ADD13C,2.300000*%
G04 #@! TD*
G04 #@! TA.AperFunction,Conductor*
%ADD14C,0.500000*%
G04 #@! TD*
G04 #@! TA.AperFunction,Conductor*
%ADD15C,0.200000*%
G04 #@! TD*
G04 #@! TA.AperFunction,Conductor*
%ADD16C,0.300000*%
G04 #@! TD*
G04 APERTURE END LIST*
D10*
X57025000Y-34245000D03*
D11*
X57025000Y-30065000D03*
D10*
X48385000Y-34245000D03*
D11*
X48385000Y-30065000D03*
D12*
X48006000Y-80137000D03*
X46228000Y-40894000D03*
X48006000Y-79248000D03*
X46228000Y-40005000D03*
X50546000Y-46101000D03*
X44958000Y-34163000D03*
X51435000Y-46101000D03*
X52832000Y-64770000D03*
X58801000Y-55753000D03*
D13*
X59500000Y-84500000D03*
D12*
X53721000Y-51562000D03*
X52451000Y-77597000D03*
X60706000Y-35052000D03*
X58293000Y-51435000D03*
D13*
X46000000Y-84500000D03*
X60000000Y-29972000D03*
X45500000Y-29972000D03*
D12*
X59182000Y-51435000D03*
X52832000Y-63881000D03*
X60706000Y-35941000D03*
X52451000Y-76708000D03*
X44958000Y-33274000D03*
X54610000Y-51562000D03*
X52832000Y-66548000D03*
X50165000Y-50673000D03*
X56946122Y-46939878D03*
X51054000Y-50673000D03*
X55372000Y-49657000D03*
X52832000Y-67437000D03*
X53213000Y-69469000D03*
X53721000Y-55753000D03*
X53975000Y-33274000D03*
X59563000Y-37338000D03*
X59563000Y-38862000D03*
X52578000Y-33274000D03*
X52451000Y-82169000D03*
X55499000Y-55753000D03*
X56261000Y-50292000D03*
X57404000Y-55753000D03*
X57277000Y-71120000D03*
X57404000Y-83312000D03*
X55372000Y-46482000D03*
D14*
X48006000Y-79248000D02*
X46228000Y-77470000D01*
X46228000Y-77470000D02*
X46228000Y-40005000D01*
X50165000Y-50673000D02*
X51054000Y-50673000D01*
X56946122Y-46939878D02*
X56946122Y-48082878D01*
X52832000Y-66548000D02*
X52832000Y-67437000D01*
X51054000Y-50673000D02*
X51054000Y-64770000D01*
X51054000Y-64770000D02*
X52832000Y-66548000D01*
X56946122Y-48082878D02*
X55372000Y-49657000D01*
D15*
X53721000Y-55753000D02*
X54737000Y-56769000D01*
X54737000Y-67945000D02*
X53213000Y-69469000D01*
X54737000Y-56769000D02*
X54737000Y-67945000D01*
D16*
X56388000Y-37338000D02*
X53975000Y-34925000D01*
X59563000Y-37338000D02*
X56388000Y-37338000D01*
X53975000Y-34925000D02*
X53975000Y-33274000D01*
X52578000Y-35179000D02*
X56261000Y-38862000D01*
X52578000Y-33274000D02*
X52578000Y-35179000D01*
X56261000Y-38862000D02*
X59563000Y-38862000D01*
D15*
X55499000Y-55753000D02*
X56134000Y-55118000D01*
X55499000Y-79121000D02*
X52451000Y-82169000D01*
X55499000Y-55753000D02*
X55499000Y-79121000D01*
X56134000Y-50419000D02*
X56261000Y-50292000D01*
X56134000Y-55118000D02*
X56134000Y-50419000D01*
X56769000Y-58420000D02*
X56769000Y-70612000D01*
X57404000Y-57785000D02*
X56769000Y-58420000D01*
X56769000Y-70612000D02*
X57277000Y-71120000D01*
X57404000Y-55753000D02*
X57404000Y-57785000D01*
X56642000Y-56769000D02*
X56642000Y-51358000D01*
X56134000Y-82042000D02*
X56134000Y-57277000D01*
X56134000Y-45720000D02*
X55372000Y-46482000D01*
X57531000Y-45720000D02*
X56134000Y-45720000D01*
X56134000Y-57277000D02*
X56642000Y-56769000D01*
X58293000Y-49707000D02*
X58293000Y-46482000D01*
X56642000Y-51358000D02*
X58293000Y-49707000D01*
X57404000Y-83312000D02*
X56134000Y-82042000D01*
X58293000Y-46482000D02*
X57531000Y-45720000D01*
G04 #@! TA.AperFunction,Conductor*
G36*
X48451000Y-78756881D02*
G01*
X48497119Y-78803000D01*
X48514000Y-78866000D01*
X48514000Y-80519000D01*
X48497119Y-80582000D01*
X48451000Y-80628119D01*
X48388000Y-80645000D01*
X47624000Y-80645000D01*
X47561000Y-80628119D01*
X47514881Y-80582000D01*
X47498000Y-80519000D01*
X47498000Y-78866000D01*
X47514881Y-78803000D01*
X47561000Y-78756881D01*
X47624000Y-78740000D01*
X48388000Y-78740000D01*
X48451000Y-78756881D01*
G37*
G04 #@! TD.AperFunction*
G04 #@! TA.AperFunction,Conductor*
G36*
X53404000Y-66056881D02*
G01*
X53450119Y-66103000D01*
X53467000Y-66166000D01*
X53467000Y-67819000D01*
X53450119Y-67882000D01*
X53404000Y-67928119D01*
X53341000Y-67945000D01*
X52450000Y-67945000D01*
X52387000Y-67928119D01*
X52340881Y-67882000D01*
X52324000Y-67819000D01*
X52324000Y-66166000D01*
X52340881Y-66103000D01*
X52387000Y-66056881D01*
X52450000Y-66040000D01*
X53341000Y-66040000D01*
X53404000Y-66056881D01*
G37*
G04 #@! TD.AperFunction*
G04 #@! TA.AperFunction,Conductor*
G36*
X60982531Y-28073139D02*
G01*
X60991085Y-28074102D01*
X61043555Y-28080014D01*
X61066002Y-28084642D01*
X61124914Y-28102512D01*
X61129849Y-28104123D01*
X61205086Y-28130449D01*
X61223401Y-28136858D01*
X61241178Y-28144663D01*
X61301465Y-28176887D01*
X61309069Y-28181301D01*
X61354028Y-28209550D01*
X61387373Y-28230502D01*
X61400269Y-28239789D01*
X61454729Y-28284482D01*
X61463892Y-28292787D01*
X61528211Y-28357106D01*
X61536516Y-28366269D01*
X61581209Y-28420729D01*
X61590496Y-28433625D01*
X61639688Y-28511913D01*
X61644124Y-28519555D01*
X61676334Y-28579818D01*
X61684141Y-28597598D01*
X61714930Y-28685590D01*
X61722000Y-28727204D01*
X61722000Y-85828314D01*
X61715834Y-85867248D01*
X61693595Y-85935697D01*
X61686769Y-85952487D01*
X61657713Y-86011412D01*
X61653826Y-86018684D01*
X61611159Y-86092591D01*
X61603000Y-86104979D01*
X61562625Y-86159053D01*
X61555303Y-86167976D01*
X61499044Y-86230463D01*
X61490938Y-86238676D01*
X61441384Y-86284488D01*
X61429918Y-86293899D01*
X61372074Y-86335931D01*
X61336946Y-86353832D01*
X61298006Y-86360000D01*
X44197047Y-86360000D01*
X44129738Y-86340516D01*
X44110817Y-86328559D01*
X44097893Y-86319195D01*
X44042834Y-86273718D01*
X44033659Y-86265346D01*
X44007180Y-86238676D01*
X43969778Y-86201004D01*
X43961481Y-86191778D01*
X43916401Y-86136392D01*
X43907133Y-86123404D01*
X43858483Y-86045177D01*
X43854092Y-86037529D01*
X43829582Y-85991122D01*
X43815000Y-85932283D01*
X43815000Y-82169000D01*
X51745355Y-82169000D01*
X51765859Y-82337871D01*
X51826181Y-82496929D01*
X51826182Y-82496930D01*
X51922817Y-82636929D01*
X52050148Y-82749734D01*
X52200775Y-82828790D01*
X52365944Y-82869500D01*
X52536054Y-82869500D01*
X52536056Y-82869500D01*
X52701225Y-82828790D01*
X52851852Y-82749734D01*
X52979183Y-82636929D01*
X53075818Y-82496930D01*
X53136140Y-82337872D01*
X53156645Y-82169000D01*
X53148961Y-82105722D01*
X53154934Y-82049438D01*
X53184945Y-82001446D01*
X55518404Y-79667988D01*
X55568564Y-79637250D01*
X55627211Y-79632634D01*
X55681561Y-79655147D01*
X55719767Y-79699880D01*
X55733500Y-79757083D01*
X55733500Y-82105434D01*
X55740298Y-82126358D01*
X55744912Y-82145577D01*
X55748354Y-82167306D01*
X55758340Y-82186905D01*
X55765906Y-82205170D01*
X55772703Y-82226089D01*
X55785631Y-82243883D01*
X55795960Y-82260738D01*
X55805948Y-82280339D01*
X55805950Y-82280342D01*
X55822183Y-82296575D01*
X55822190Y-82296583D01*
X55828515Y-82302908D01*
X55828516Y-82302909D01*
X56670052Y-83144445D01*
X56700064Y-83192437D01*
X56706037Y-83248725D01*
X56698354Y-83311998D01*
X56718859Y-83480871D01*
X56779181Y-83639929D01*
X56779182Y-83639930D01*
X56875817Y-83779929D01*
X57003148Y-83892734D01*
X57153775Y-83971790D01*
X57318944Y-84012500D01*
X57489054Y-84012500D01*
X57489056Y-84012500D01*
X57654225Y-83971790D01*
X57804852Y-83892734D01*
X57932183Y-83779929D01*
X58028818Y-83639930D01*
X58089140Y-83480872D01*
X58109645Y-83312000D01*
X58089140Y-83143128D01*
X58028818Y-82984070D01*
X57932183Y-82844071D01*
X57804852Y-82731266D01*
X57654225Y-82652210D01*
X57489056Y-82611500D01*
X57322083Y-82611500D01*
X57273865Y-82601909D01*
X57232987Y-82574595D01*
X56902275Y-82243883D01*
X56571404Y-81913011D01*
X56544091Y-81872134D01*
X56534500Y-81823916D01*
X56534500Y-71678021D01*
X56547550Y-71622179D01*
X56583997Y-71577904D01*
X56636292Y-71554368D01*
X56693601Y-71556447D01*
X56744053Y-71583708D01*
X56748816Y-71587927D01*
X56748817Y-71587929D01*
X56876148Y-71700734D01*
X57026775Y-71779790D01*
X57191944Y-71820500D01*
X57362054Y-71820500D01*
X57362056Y-71820500D01*
X57527225Y-71779790D01*
X57677852Y-71700734D01*
X57805183Y-71587929D01*
X57901818Y-71447930D01*
X57962140Y-71288872D01*
X57982645Y-71120000D01*
X57962140Y-70951128D01*
X57901818Y-70792070D01*
X57805183Y-70652071D01*
X57677852Y-70539266D01*
X57527225Y-70460210D01*
X57362056Y-70419500D01*
X57295500Y-70419500D01*
X57232500Y-70402619D01*
X57186381Y-70356500D01*
X57169500Y-70293500D01*
X57169500Y-58638083D01*
X57179091Y-58589865D01*
X57206402Y-58548990D01*
X57709484Y-58045909D01*
X57709484Y-58045908D01*
X57723943Y-58031450D01*
X57723944Y-58031451D01*
X57723949Y-58031442D01*
X57732050Y-58023342D01*
X57742038Y-58003738D01*
X57752363Y-57986888D01*
X57765296Y-57969089D01*
X57772094Y-57948164D01*
X57779659Y-57929903D01*
X57789646Y-57910304D01*
X57793087Y-57888574D01*
X57797701Y-57869354D01*
X57804500Y-57848433D01*
X57804500Y-57721567D01*
X57804500Y-56390754D01*
X57815601Y-56339042D01*
X57846947Y-56296442D01*
X57893523Y-56255179D01*
X57932183Y-56220929D01*
X58028818Y-56080930D01*
X58089140Y-55921872D01*
X58109645Y-55753000D01*
X58089140Y-55584128D01*
X58028818Y-55425070D01*
X57932183Y-55285071D01*
X57804852Y-55172266D01*
X57654225Y-55093210D01*
X57489056Y-55052500D01*
X57318944Y-55052500D01*
X57198651Y-55082149D01*
X57142055Y-55083004D01*
X57090793Y-55058995D01*
X57055215Y-55014969D01*
X57042500Y-54959810D01*
X57042500Y-51576083D01*
X57052091Y-51527865D01*
X57079405Y-51486988D01*
X58612943Y-49953451D01*
X58612948Y-49953443D01*
X58621050Y-49945342D01*
X58631038Y-49925738D01*
X58641363Y-49908888D01*
X58654296Y-49891089D01*
X58661094Y-49870164D01*
X58668659Y-49851903D01*
X58678646Y-49832304D01*
X58682087Y-49810574D01*
X58686701Y-49791354D01*
X58693500Y-49770433D01*
X58693500Y-49643567D01*
X58693500Y-46450481D01*
X58693500Y-46418567D01*
X58686703Y-46397648D01*
X58682086Y-46378419D01*
X58679555Y-46362438D01*
X58678646Y-46356696D01*
X58668657Y-46337092D01*
X58661091Y-46318825D01*
X58654296Y-46297912D01*
X58654296Y-46297911D01*
X58641360Y-46280106D01*
X58631040Y-46263265D01*
X58621050Y-46243658D01*
X58607307Y-46229915D01*
X58607300Y-46229906D01*
X57785590Y-45408196D01*
X57785575Y-45408183D01*
X57769342Y-45391950D01*
X57769339Y-45391948D01*
X57749738Y-45381960D01*
X57732883Y-45371631D01*
X57715089Y-45358703D01*
X57694170Y-45351906D01*
X57675905Y-45344340D01*
X57656306Y-45334354D01*
X57634577Y-45330912D01*
X57615358Y-45326298D01*
X57594434Y-45319500D01*
X57594433Y-45319500D01*
X57562519Y-45319500D01*
X56197433Y-45319500D01*
X56070567Y-45319500D01*
X56056393Y-45324105D01*
X56049640Y-45326299D01*
X56030424Y-45330912D01*
X56008695Y-45334354D01*
X55989091Y-45344342D01*
X55970837Y-45351903D01*
X55949909Y-45358703D01*
X55932108Y-45371636D01*
X55915262Y-45381960D01*
X55895659Y-45391949D01*
X55895658Y-45391949D01*
X55895658Y-45391950D01*
X55873096Y-45414511D01*
X55873091Y-45414516D01*
X55543010Y-45744596D01*
X55502133Y-45771909D01*
X55453915Y-45781500D01*
X55286944Y-45781500D01*
X55121775Y-45822210D01*
X54971147Y-45901266D01*
X54971148Y-45901266D01*
X54843816Y-46014072D01*
X54747181Y-46154070D01*
X54686859Y-46313128D01*
X54666355Y-46481999D01*
X54686859Y-46650871D01*
X54747181Y-46809929D01*
X54763673Y-46833821D01*
X54843817Y-46949929D01*
X54971148Y-47062734D01*
X55121775Y-47141790D01*
X55286944Y-47182500D01*
X55457054Y-47182500D01*
X55457056Y-47182500D01*
X55622225Y-47141790D01*
X55772852Y-47062734D01*
X55900183Y-46949929D01*
X55996818Y-46809930D01*
X56010462Y-46773952D01*
X56044718Y-46724323D01*
X56098117Y-46696296D01*
X56105424Y-46696295D01*
X56072036Y-46647923D01*
X56064767Y-46588055D01*
X56067338Y-46566882D01*
X56077645Y-46482000D01*
X56069962Y-46418727D01*
X56075935Y-46362438D01*
X56105948Y-46314444D01*
X56262989Y-46157404D01*
X56303866Y-46130091D01*
X56352084Y-46120500D01*
X56488767Y-46120500D01*
X56552644Y-46137892D01*
X56598887Y-46185266D01*
X56614730Y-46249545D01*
X56595800Y-46312983D01*
X56547322Y-46358067D01*
X56545271Y-46359142D01*
X56417938Y-46471950D01*
X56321304Y-46611947D01*
X56307660Y-46647924D01*
X56273401Y-46697556D01*
X56220001Y-46725582D01*
X56212696Y-46725582D01*
X56246085Y-46773953D01*
X56253354Y-46833821D01*
X56240477Y-46939877D01*
X56260981Y-47108749D01*
X56321303Y-47267807D01*
X56373318Y-47343163D01*
X56389917Y-47377253D01*
X56395622Y-47414739D01*
X56395622Y-47802663D01*
X56386031Y-47850881D01*
X56358717Y-47891758D01*
X55321112Y-48929362D01*
X55262171Y-48962606D01*
X55121774Y-48997210D01*
X54971148Y-49076266D01*
X54843816Y-49189072D01*
X54747181Y-49329070D01*
X54686859Y-49488128D01*
X54666355Y-49656999D01*
X54686859Y-49825871D01*
X54747181Y-49984929D01*
X54765853Y-50011979D01*
X54843817Y-50124929D01*
X54971148Y-50237734D01*
X55121775Y-50316790D01*
X55286944Y-50357500D01*
X55286946Y-50357500D01*
X55451682Y-50357500D01*
X55510235Y-50371932D01*
X55555376Y-50411921D01*
X55568758Y-50447202D01*
X55570435Y-50446567D01*
X55636181Y-50619929D01*
X55711196Y-50728606D01*
X55727795Y-50762696D01*
X55733500Y-50800182D01*
X55733500Y-54899916D01*
X55723908Y-54948135D01*
X55696594Y-54989013D01*
X55670009Y-55015597D01*
X55629132Y-55042909D01*
X55580915Y-55052500D01*
X55413944Y-55052500D01*
X55248775Y-55093210D01*
X55098148Y-55172265D01*
X55098148Y-55172266D01*
X54970816Y-55285072D01*
X54874181Y-55425070D01*
X54813859Y-55584128D01*
X54793355Y-55753000D01*
X54813859Y-55921871D01*
X54824193Y-55949119D01*
X54830316Y-56016511D01*
X54800691Y-56077352D01*
X54743864Y-56114092D01*
X54676225Y-56116135D01*
X54617286Y-56082893D01*
X54454947Y-55920554D01*
X54424935Y-55872560D01*
X54418962Y-55816271D01*
X54426645Y-55753000D01*
X54406140Y-55584128D01*
X54345818Y-55425070D01*
X54249183Y-55285071D01*
X54121852Y-55172266D01*
X53971225Y-55093210D01*
X53806056Y-55052500D01*
X53635944Y-55052500D01*
X53470775Y-55093210D01*
X53320148Y-55172265D01*
X53320148Y-55172266D01*
X53192816Y-55285072D01*
X53096181Y-55425070D01*
X53035859Y-55584128D01*
X53015355Y-55753000D01*
X53035859Y-55921871D01*
X53096181Y-56080929D01*
X53096182Y-56080930D01*
X53192817Y-56220929D01*
X53320148Y-56333734D01*
X53470775Y-56412790D01*
X53635944Y-56453500D01*
X53635946Y-56453500D01*
X53802917Y-56453500D01*
X53851135Y-56463091D01*
X53892012Y-56490405D01*
X54299595Y-56897988D01*
X54326909Y-56938865D01*
X54336500Y-56987083D01*
X54336500Y-67726917D01*
X54326909Y-67775135D01*
X54299595Y-67816013D01*
X53866449Y-68249157D01*
X53812612Y-68281027D01*
X53803330Y-68281330D01*
X53803027Y-68290612D01*
X53771156Y-68344449D01*
X53384010Y-68731595D01*
X53343133Y-68758909D01*
X53294915Y-68768500D01*
X53127944Y-68768500D01*
X52962775Y-68809210D01*
X52812148Y-68888265D01*
X52812148Y-68888266D01*
X52684816Y-69001072D01*
X52588181Y-69141070D01*
X52527859Y-69300128D01*
X52507355Y-69469000D01*
X52527859Y-69637871D01*
X52588181Y-69796929D01*
X52588182Y-69796930D01*
X52684817Y-69936929D01*
X52812148Y-70049734D01*
X52962775Y-70128790D01*
X53127944Y-70169500D01*
X53298054Y-70169500D01*
X53298056Y-70169500D01*
X53463225Y-70128790D01*
X53613852Y-70049734D01*
X53741183Y-69936929D01*
X53837818Y-69796930D01*
X53898140Y-69637872D01*
X53918645Y-69469000D01*
X53910961Y-69405722D01*
X53916934Y-69349438D01*
X53946943Y-69301448D01*
X54883407Y-68364984D01*
X54933564Y-68334249D01*
X54992211Y-68329633D01*
X55046561Y-68352146D01*
X55084767Y-68396879D01*
X55098500Y-68454082D01*
X55098500Y-78902917D01*
X55088909Y-78951135D01*
X55061595Y-78992012D01*
X52622011Y-81431595D01*
X52581134Y-81458909D01*
X52532916Y-81468500D01*
X52365944Y-81468500D01*
X52200775Y-81509210D01*
X52050147Y-81588266D01*
X52050148Y-81588266D01*
X51922816Y-81701072D01*
X51826181Y-81841070D01*
X51765859Y-82000128D01*
X51745355Y-82169000D01*
X43815000Y-82169000D01*
X43815000Y-41276000D01*
X45414500Y-41276000D01*
X45424910Y-41355070D01*
X45441791Y-41418070D01*
X45441792Y-41418074D01*
X45441793Y-41418075D01*
X45472308Y-41491748D01*
X45520864Y-41555026D01*
X45566972Y-41601134D01*
X45566976Y-41601137D01*
X45566979Y-41601140D01*
X45628206Y-41648121D01*
X45664506Y-41692354D01*
X45677500Y-41748082D01*
X45677500Y-77458439D01*
X45677427Y-77462740D01*
X45675238Y-77526827D01*
X45684941Y-77566646D01*
X45687349Y-77579319D01*
X45692929Y-77619918D01*
X45700010Y-77636219D01*
X45706858Y-77656581D01*
X45711067Y-77673853D01*
X45731154Y-77709580D01*
X45736890Y-77721128D01*
X45753219Y-77758718D01*
X45753220Y-77758720D01*
X45764435Y-77772505D01*
X45776522Y-77790264D01*
X45785235Y-77805760D01*
X45814209Y-77834734D01*
X45822853Y-77844311D01*
X45848722Y-77876108D01*
X45863242Y-77886357D01*
X45879675Y-77900200D01*
X47155595Y-79176120D01*
X47182909Y-79216997D01*
X47192500Y-79265215D01*
X47192500Y-80519000D01*
X47202910Y-80598070D01*
X47219791Y-80661070D01*
X47219792Y-80661074D01*
X47219793Y-80661075D01*
X47250308Y-80734748D01*
X47298864Y-80798026D01*
X47344973Y-80844135D01*
X47344977Y-80844138D01*
X47344979Y-80844140D01*
X47384831Y-80874720D01*
X47408251Y-80892691D01*
X47447465Y-80908933D01*
X47481930Y-80923209D01*
X47544930Y-80940090D01*
X47624000Y-80950500D01*
X48388000Y-80950500D01*
X48467070Y-80940090D01*
X48530070Y-80923209D01*
X48603750Y-80892690D01*
X48667021Y-80844140D01*
X48713140Y-80798021D01*
X48761690Y-80734750D01*
X48792209Y-80661070D01*
X48809090Y-80598070D01*
X48819500Y-80519000D01*
X48819500Y-78866000D01*
X48809090Y-78786930D01*
X48792209Y-78723930D01*
X48777933Y-78689465D01*
X48761691Y-78650251D01*
X48713135Y-78586973D01*
X48667026Y-78540864D01*
X48603748Y-78492308D01*
X48530075Y-78461793D01*
X48530074Y-78461792D01*
X48530070Y-78461791D01*
X48467070Y-78444910D01*
X48467067Y-78444909D01*
X48467065Y-78444909D01*
X48388000Y-78434500D01*
X48023215Y-78434500D01*
X47974997Y-78424909D01*
X47934120Y-78397595D01*
X46815405Y-77278880D01*
X46788091Y-77238003D01*
X46778500Y-77189785D01*
X46778500Y-51055000D01*
X49351500Y-51055000D01*
X49361910Y-51134070D01*
X49378791Y-51197070D01*
X49378792Y-51197074D01*
X49378793Y-51197075D01*
X49409308Y-51270748D01*
X49457864Y-51334026D01*
X49503973Y-51380135D01*
X49503977Y-51380138D01*
X49503979Y-51380140D01*
X49543831Y-51410720D01*
X49567251Y-51428691D01*
X49606465Y-51444933D01*
X49640930Y-51459209D01*
X49703930Y-51476090D01*
X49783000Y-51486500D01*
X50377500Y-51486500D01*
X50440500Y-51503381D01*
X50486619Y-51549500D01*
X50503500Y-51612500D01*
X50503500Y-64758439D01*
X50503427Y-64762740D01*
X50501238Y-64826827D01*
X50510941Y-64866646D01*
X50513349Y-64879319D01*
X50518929Y-64919918D01*
X50526010Y-64936219D01*
X50532858Y-64956581D01*
X50537067Y-64973853D01*
X50557154Y-65009580D01*
X50562890Y-65021128D01*
X50579219Y-65058718D01*
X50579220Y-65058720D01*
X50590435Y-65072505D01*
X50602522Y-65090264D01*
X50611235Y-65105760D01*
X50640209Y-65134734D01*
X50648853Y-65144311D01*
X50674722Y-65176108D01*
X50689242Y-65186357D01*
X50705675Y-65200200D01*
X51981595Y-66476120D01*
X52008909Y-66516997D01*
X52018500Y-66565215D01*
X52018500Y-67819000D01*
X52028910Y-67898070D01*
X52045791Y-67961070D01*
X52045792Y-67961074D01*
X52045793Y-67961075D01*
X52076308Y-68034748D01*
X52124864Y-68098026D01*
X52170973Y-68144135D01*
X52170977Y-68144138D01*
X52170979Y-68144140D01*
X52185011Y-68154907D01*
X52234251Y-68192691D01*
X52273465Y-68208933D01*
X52307930Y-68223209D01*
X52370930Y-68240090D01*
X52450000Y-68250500D01*
X53341000Y-68250500D01*
X53420070Y-68240090D01*
X53483070Y-68223209D01*
X53534030Y-68202100D01*
X53556751Y-68192690D01*
X53605356Y-68155393D01*
X53655834Y-68133834D01*
X53677393Y-68083356D01*
X53714690Y-68034751D01*
X53724100Y-68012030D01*
X53745209Y-67961070D01*
X53762090Y-67898070D01*
X53772500Y-67819000D01*
X53772500Y-66166000D01*
X53762090Y-66086930D01*
X53745209Y-66023930D01*
X53730933Y-65989465D01*
X53714691Y-65950251D01*
X53666135Y-65886973D01*
X53620026Y-65840864D01*
X53556748Y-65792308D01*
X53483075Y-65761793D01*
X53483074Y-65761792D01*
X53483070Y-65761791D01*
X53420070Y-65744910D01*
X53420067Y-65744909D01*
X53420065Y-65744909D01*
X53341000Y-65734500D01*
X52849215Y-65734500D01*
X52800997Y-65724909D01*
X52760120Y-65697595D01*
X51641405Y-64578880D01*
X51614091Y-64538003D01*
X51604500Y-64489785D01*
X51604500Y-51527082D01*
X51617494Y-51471354D01*
X51653793Y-51427121D01*
X51715021Y-51380140D01*
X51761140Y-51334021D01*
X51809690Y-51270750D01*
X51840209Y-51197070D01*
X51857090Y-51134070D01*
X51867500Y-51055000D01*
X51867500Y-50291000D01*
X51857090Y-50211930D01*
X51840209Y-50148930D01*
X51825933Y-50114465D01*
X51809691Y-50075251D01*
X51761135Y-50011973D01*
X51715026Y-49965864D01*
X51651748Y-49917308D01*
X51578075Y-49886793D01*
X51578074Y-49886792D01*
X51578070Y-49886791D01*
X51515070Y-49869910D01*
X51515067Y-49869909D01*
X51515065Y-49869909D01*
X51436000Y-49859500D01*
X49783000Y-49859500D01*
X49703934Y-49869909D01*
X49703930Y-49869909D01*
X49703930Y-49869910D01*
X49640930Y-49886791D01*
X49640927Y-49886792D01*
X49640924Y-49886793D01*
X49567251Y-49917308D01*
X49503973Y-49965864D01*
X49457864Y-50011973D01*
X49409308Y-50075251D01*
X49378793Y-50148924D01*
X49361909Y-50211934D01*
X49356222Y-50255132D01*
X49351500Y-50291000D01*
X49351500Y-51055000D01*
X46778500Y-51055000D01*
X46778500Y-41748082D01*
X46791494Y-41692354D01*
X46827793Y-41648121D01*
X46889021Y-41601140D01*
X46935140Y-41555021D01*
X46983690Y-41491750D01*
X47014209Y-41418070D01*
X47031090Y-41355070D01*
X47041500Y-41276000D01*
X47041500Y-39623000D01*
X47031090Y-39543930D01*
X47014209Y-39480930D01*
X46998387Y-39442733D01*
X46983691Y-39407251D01*
X46965720Y-39383831D01*
X46935140Y-39343979D01*
X46935138Y-39343977D01*
X46935135Y-39343973D01*
X46889026Y-39297864D01*
X46825748Y-39249308D01*
X46752075Y-39218793D01*
X46752074Y-39218792D01*
X46752070Y-39218791D01*
X46689070Y-39201910D01*
X46689067Y-39201909D01*
X46689065Y-39201909D01*
X46610000Y-39191500D01*
X45846000Y-39191500D01*
X45766934Y-39201909D01*
X45766930Y-39201909D01*
X45766930Y-39201910D01*
X45703930Y-39218791D01*
X45703927Y-39218792D01*
X45703924Y-39218793D01*
X45630251Y-39249308D01*
X45566973Y-39297864D01*
X45520864Y-39343973D01*
X45472308Y-39407251D01*
X45441793Y-39480924D01*
X45441791Y-39480930D01*
X45424910Y-39543930D01*
X45414500Y-39623000D01*
X45414500Y-41276000D01*
X43815000Y-41276000D01*
X43815000Y-34839951D01*
X47584500Y-34839951D01*
X47599632Y-34974257D01*
X47659210Y-35144521D01*
X47755184Y-35297263D01*
X47882736Y-35424815D01*
X47986374Y-35489935D01*
X48035478Y-35520789D01*
X48205745Y-35580368D01*
X48385000Y-35600565D01*
X48564255Y-35580368D01*
X48734522Y-35520789D01*
X48887262Y-35424816D01*
X49014816Y-35297262D01*
X49110789Y-35144522D01*
X49170368Y-34974255D01*
X49185500Y-34839954D01*
X49185500Y-34211164D01*
X49200769Y-34151041D01*
X49242877Y-34105491D01*
X49301616Y-34085552D01*
X49362751Y-34096058D01*
X49389820Y-34117398D01*
X49391390Y-34115353D01*
X49404547Y-34125449D01*
X49404549Y-34125451D01*
X49524767Y-34217698D01*
X49664764Y-34275687D01*
X49777280Y-34290500D01*
X49852720Y-34290500D01*
X49965236Y-34275687D01*
X50105233Y-34217698D01*
X50225451Y-34125451D01*
X50317698Y-34005233D01*
X50375687Y-33865236D01*
X50395466Y-33715000D01*
X50375687Y-33564764D01*
X50317698Y-33424767D01*
X50225451Y-33304549D01*
X50185637Y-33273999D01*
X51872355Y-33273999D01*
X51892859Y-33442871D01*
X51953181Y-33601929D01*
X52049816Y-33741928D01*
X52085054Y-33773146D01*
X52116399Y-33815746D01*
X52127500Y-33867458D01*
X52127500Y-35146622D01*
X52126708Y-35160729D01*
X52122729Y-35196036D01*
X52133345Y-35252140D01*
X52134134Y-35256783D01*
X52143579Y-35319444D01*
X52145068Y-35323970D01*
X52174673Y-35379984D01*
X52176797Y-35384190D01*
X52204274Y-35441248D01*
X52207037Y-35445141D01*
X52251832Y-35489935D01*
X52255103Y-35493331D01*
X52298182Y-35539761D01*
X52313117Y-35551221D01*
X55919547Y-39157650D01*
X55928962Y-39168185D01*
X55951118Y-39195968D01*
X55951121Y-39195970D01*
X55998340Y-39228163D01*
X56002144Y-39230862D01*
X56048118Y-39264793D01*
X56048120Y-39264793D01*
X56053138Y-39268497D01*
X56057369Y-39270633D01*
X56063323Y-39272469D01*
X56063327Y-39272472D01*
X56117942Y-39289317D01*
X56122405Y-39290787D01*
X56156172Y-39302602D01*
X56176301Y-39309646D01*
X56182186Y-39311705D01*
X56186863Y-39312500D01*
X56193098Y-39312500D01*
X56250199Y-39312500D01*
X56254909Y-39312587D01*
X56312010Y-39314725D01*
X56312012Y-39314724D01*
X56318233Y-39314957D01*
X56336902Y-39312500D01*
X58967358Y-39312500D01*
X59012038Y-39320688D01*
X59050911Y-39344187D01*
X59162148Y-39442734D01*
X59312775Y-39521790D01*
X59477944Y-39562500D01*
X59648054Y-39562500D01*
X59648056Y-39562500D01*
X59813225Y-39521790D01*
X59963852Y-39442734D01*
X60091183Y-39329929D01*
X60187818Y-39189930D01*
X60248140Y-39030872D01*
X60268645Y-38862000D01*
X60248140Y-38693128D01*
X60187818Y-38534070D01*
X60091183Y-38394071D01*
X59963852Y-38281266D01*
X59963850Y-38281264D01*
X59880721Y-38237635D01*
X59831050Y-38211565D01*
X59781779Y-38165185D01*
X59763607Y-38100000D01*
X59781779Y-38034815D01*
X59831050Y-37988434D01*
X59963852Y-37918734D01*
X60091183Y-37805929D01*
X60187818Y-37665930D01*
X60248140Y-37506872D01*
X60268645Y-37338000D01*
X60248140Y-37169128D01*
X60187818Y-37010070D01*
X60091183Y-36870071D01*
X59963852Y-36757266D01*
X59813225Y-36678210D01*
X59648056Y-36637500D01*
X59477944Y-36637500D01*
X59312775Y-36678210D01*
X59162147Y-36757266D01*
X59162148Y-36757266D01*
X59050911Y-36855813D01*
X59012038Y-36879312D01*
X58967358Y-36887500D01*
X56626793Y-36887500D01*
X56578575Y-36877909D01*
X56537698Y-36850595D01*
X54462405Y-34775302D01*
X54435091Y-34734425D01*
X54425500Y-34686207D01*
X54425500Y-33867458D01*
X54436601Y-33815746D01*
X54467946Y-33773146D01*
X54503183Y-33741929D01*
X54521771Y-33715000D01*
X55014534Y-33715000D01*
X55034312Y-33865235D01*
X55092301Y-34005232D01*
X55092302Y-34005233D01*
X55184549Y-34125451D01*
X55304767Y-34217698D01*
X55444764Y-34275687D01*
X55557280Y-34290500D01*
X55632720Y-34290500D01*
X55745236Y-34275687D01*
X55885233Y-34217698D01*
X56005451Y-34125451D01*
X56005452Y-34125449D01*
X56018610Y-34115353D01*
X56020179Y-34117398D01*
X56047249Y-34096058D01*
X56108384Y-34085552D01*
X56167123Y-34105491D01*
X56209231Y-34151041D01*
X56224500Y-34211164D01*
X56224500Y-34839951D01*
X56239632Y-34974257D01*
X56299210Y-35144521D01*
X56395184Y-35297263D01*
X56522736Y-35424815D01*
X56626374Y-35489935D01*
X56675478Y-35520789D01*
X56845745Y-35580368D01*
X57025000Y-35600565D01*
X57204255Y-35580368D01*
X57374522Y-35520789D01*
X57527262Y-35424816D01*
X57654816Y-35297262D01*
X57750789Y-35144522D01*
X57810368Y-34974255D01*
X57825500Y-34839954D01*
X57825500Y-33650046D01*
X57810368Y-33515745D01*
X57750789Y-33345478D01*
X57654816Y-33192738D01*
X57654815Y-33192736D01*
X57527263Y-33065184D01*
X57374521Y-32969210D01*
X57204257Y-32909632D01*
X57025000Y-32889435D01*
X56845742Y-32909632D01*
X56675478Y-32969210D01*
X56522736Y-33065184D01*
X56395184Y-33192736D01*
X56299210Y-33345478D01*
X56294030Y-33360283D01*
X56255941Y-33415314D01*
X56195044Y-33443076D01*
X56128521Y-33435737D01*
X56075140Y-33395369D01*
X56036857Y-33345478D01*
X56005451Y-33304549D01*
X55913202Y-33233764D01*
X55885232Y-33212301D01*
X55745235Y-33154312D01*
X55632720Y-33139500D01*
X55557280Y-33139500D01*
X55444764Y-33154312D01*
X55304767Y-33212301D01*
X55184549Y-33304549D01*
X55092301Y-33424767D01*
X55034312Y-33564764D01*
X55014534Y-33715000D01*
X54521771Y-33715000D01*
X54599818Y-33601930D01*
X54660140Y-33442872D01*
X54680645Y-33274000D01*
X54660140Y-33105128D01*
X54599818Y-32946070D01*
X54503183Y-32806071D01*
X54375852Y-32693266D01*
X54225225Y-32614210D01*
X54060056Y-32573500D01*
X53889944Y-32573500D01*
X53724775Y-32614210D01*
X53574148Y-32693265D01*
X53574148Y-32693266D01*
X53446817Y-32806070D01*
X53380196Y-32902588D01*
X53335055Y-32942579D01*
X53276500Y-32957011D01*
X53217945Y-32942579D01*
X53172804Y-32902588D01*
X53106183Y-32806072D01*
X53106183Y-32806071D01*
X52978852Y-32693266D01*
X52828225Y-32614210D01*
X52663056Y-32573500D01*
X52492944Y-32573500D01*
X52327775Y-32614210D01*
X52177148Y-32693265D01*
X52177148Y-32693266D01*
X52049816Y-32806072D01*
X51953181Y-32946070D01*
X51892859Y-33105128D01*
X51872355Y-33273999D01*
X50185637Y-33273999D01*
X50133202Y-33233764D01*
X50105232Y-33212301D01*
X49965235Y-33154312D01*
X49852720Y-33139500D01*
X49777280Y-33139500D01*
X49664764Y-33154312D01*
X49524767Y-33212301D01*
X49404549Y-33304549D01*
X49334859Y-33395369D01*
X49281477Y-33435738D01*
X49214953Y-33443076D01*
X49154056Y-33415312D01*
X49115968Y-33360279D01*
X49110789Y-33345478D01*
X49014815Y-33192736D01*
X48887263Y-33065184D01*
X48734521Y-32969210D01*
X48564257Y-32909632D01*
X48385000Y-32889435D01*
X48205742Y-32909632D01*
X48035478Y-32969210D01*
X47882736Y-33065184D01*
X47755184Y-33192736D01*
X47659210Y-33345478D01*
X47599632Y-33515742D01*
X47599632Y-33515745D01*
X47589922Y-33601929D01*
X47584500Y-33650049D01*
X47584500Y-34839951D01*
X43815000Y-34839951D01*
X43815000Y-30409951D01*
X47584500Y-30409951D01*
X47599632Y-30544257D01*
X47659210Y-30714521D01*
X47755184Y-30867263D01*
X47882736Y-30994815D01*
X47882738Y-30994816D01*
X48035478Y-31090789D01*
X48205745Y-31150368D01*
X48385000Y-31170565D01*
X48564255Y-31150368D01*
X48734522Y-31090789D01*
X48887262Y-30994816D01*
X49014816Y-30867262D01*
X49110789Y-30714522D01*
X49170368Y-30544255D01*
X49185500Y-30409954D01*
X49185500Y-30409951D01*
X56224500Y-30409951D01*
X56239632Y-30544257D01*
X56299210Y-30714521D01*
X56395184Y-30867263D01*
X56522736Y-30994815D01*
X56522738Y-30994816D01*
X56675478Y-31090789D01*
X56845745Y-31150368D01*
X57025000Y-31170565D01*
X57204255Y-31150368D01*
X57374522Y-31090789D01*
X57527262Y-30994816D01*
X57654816Y-30867262D01*
X57750789Y-30714522D01*
X57810368Y-30544255D01*
X57825500Y-30409954D01*
X57825500Y-29720046D01*
X57810368Y-29585745D01*
X57750789Y-29415478D01*
X57654816Y-29262738D01*
X57654815Y-29262736D01*
X57527263Y-29135184D01*
X57374521Y-29039210D01*
X57204257Y-28979632D01*
X57025000Y-28959435D01*
X56845742Y-28979632D01*
X56675478Y-29039210D01*
X56522736Y-29135184D01*
X56395184Y-29262736D01*
X56299210Y-29415478D01*
X56239632Y-29585742D01*
X56224500Y-29720049D01*
X56224500Y-30409951D01*
X49185500Y-30409951D01*
X49185500Y-29720046D01*
X49170368Y-29585745D01*
X49110789Y-29415478D01*
X49014816Y-29262738D01*
X49014815Y-29262736D01*
X48887263Y-29135184D01*
X48734521Y-29039210D01*
X48564257Y-28979632D01*
X48385000Y-28959435D01*
X48205742Y-28979632D01*
X48035478Y-29039210D01*
X47882736Y-29135184D01*
X47755184Y-29262736D01*
X47659210Y-29415478D01*
X47599632Y-29585742D01*
X47584500Y-29720049D01*
X47584500Y-30409951D01*
X43815000Y-30409951D01*
X43815000Y-28633989D01*
X43829878Y-28574593D01*
X43856000Y-28525722D01*
X43860435Y-28518082D01*
X43909436Y-28440099D01*
X43918693Y-28427244D01*
X43963611Y-28372513D01*
X43971885Y-28363384D01*
X44035992Y-28299277D01*
X44045122Y-28291003D01*
X44099863Y-28246079D01*
X44112728Y-28236815D01*
X44154722Y-28210428D01*
X44220861Y-28191121D01*
X60967539Y-28072350D01*
X60982531Y-28073139D01*
G37*
G04 #@! TD.AperFunction*
G04 #@! TA.AperFunction,Conductor*
G36*
X46673000Y-39513881D02*
G01*
X46719119Y-39560000D01*
X46736000Y-39623000D01*
X46736000Y-41276000D01*
X46719119Y-41339000D01*
X46673000Y-41385119D01*
X46610000Y-41402000D01*
X45846000Y-41402000D01*
X45783000Y-41385119D01*
X45736881Y-41339000D01*
X45720000Y-41276000D01*
X45720000Y-39623000D01*
X45736881Y-39560000D01*
X45783000Y-39513881D01*
X45846000Y-39497000D01*
X46610000Y-39497000D01*
X46673000Y-39513881D01*
G37*
G04 #@! TD.AperFunction*
G04 #@! TA.AperFunction,Conductor*
G36*
X51499000Y-50181881D02*
G01*
X51545119Y-50228000D01*
X51562000Y-50291000D01*
X51562000Y-51055000D01*
X51545119Y-51118000D01*
X51499000Y-51164119D01*
X51436000Y-51181000D01*
X49783000Y-51181000D01*
X49720000Y-51164119D01*
X49673881Y-51118000D01*
X49657000Y-51055000D01*
X49657000Y-50291000D01*
X49673881Y-50228000D01*
X49720000Y-50181881D01*
X49783000Y-50165000D01*
X51436000Y-50165000D01*
X51499000Y-50181881D01*
G37*
G04 #@! TD.AperFunction*
M02*
