M48
; DRILL file {KiCad 7.0.1} date Tue Aug 15 21:07:46 2023
; FORMAT={-:-/ absolute / metric / decimal}
; #@! TF.CreationDate,2023-08-15T21:07:46+02:00
; #@! TF.GenerationSoftware,Kicad,Pcbnew,7.0.1
; #@! TF.FileFunction,Plated,1,2,PTH
FMAT,2
METRIC
; #@! TA.AperFunction,Plated,PTH,ViaDrill
T1C0.400
; #@! TA.AperFunction,Plated,PTH,ComponentDrill
T2C0.600
; #@! TA.AperFunction,Plated,PTH,ViaDrill
T3C2.000
%
G90
G05
T1
X44.958Y-33.274
X44.958Y-34.163
X46.228Y-40.005
X46.228Y-40.894
X48.006Y-79.248
X48.006Y-80.137
X50.165Y-50.673
X50.546Y-46.101
X51.054Y-50.673
X51.435Y-46.101
X52.451Y-76.708
X52.451Y-77.597
X52.451Y-82.169
X52.578Y-33.274
X52.832Y-63.881
X52.832Y-64.77
X52.832Y-66.548
X52.832Y-67.437
X53.213Y-69.469
X53.721Y-51.562
X53.721Y-55.753
X53.975Y-33.274
X54.61Y-51.562
X55.372Y-46.482
X55.372Y-49.657
X55.499Y-55.753
X56.261Y-50.292
X56.946Y-46.94
X57.277Y-71.12
X57.404Y-55.753
X57.404Y-83.312
X58.293Y-51.435
X58.801Y-55.753
X59.182Y-51.435
X59.563Y-37.338
X59.563Y-38.862
X60.706Y-35.052
X60.706Y-35.941
T3
X45.5Y-29.972
X46.0Y-84.5
X59.5Y-84.5
X60.0Y-29.972
T2
X48.385Y-30.365G85X48.385Y-29.765
G05
X48.385Y-34.795G85X48.385Y-33.695
G05
X57.025Y-30.365G85X57.025Y-29.765
G05
X57.025Y-34.795G85X57.025Y-33.695
G05
T0
M30
